<svg width="525" height="298" viewBox="0 0 525 298" fill="none" xmlns="http://www.w3.org/2000/svg">
<rect x="1" y="1" width="522.585" height="295.87" rx="23" fill="white" fill-opacity="0.25"/>
<rect x="1" y="1" width="522.585" height="295.87" rx="23" stroke="white" stroke-width="2"/>
<path d="M29.4489 31.6364L34.3707 47.108H34.5597L39.4915 31.6364H44.2642L37.2443 52H31.696L24.6662 31.6364H29.4489ZM51.0206 31.6364V52H46.7152V31.6364H51.0206ZM65.6097 37.4929C65.5302 36.6908 65.1888 36.0677 64.5856 35.6236C63.9824 35.1794 63.1637 34.9574 62.1296 34.9574C61.427 34.9574 60.8337 35.0568 60.3498 35.2557C59.8659 35.4479 59.4947 35.7164 59.2362 36.0611C58.9843 36.4058 58.8583 36.7969 58.8583 37.2344C58.8451 37.599 58.9213 37.9171 59.087 38.1889C59.2594 38.4607 59.4947 38.696 59.793 38.8949C60.0913 39.0871 60.436 39.2562 60.8271 39.402C61.2182 39.5412 61.6358 39.6605 62.0799 39.7599L63.9094 40.1974C64.7977 40.3963 65.613 40.6615 66.3555 40.9929C67.0979 41.3243 67.7409 41.732 68.2844 42.2159C68.828 42.6998 69.2489 43.2699 69.5472 43.9261C69.8522 44.5824 70.0079 45.3348 70.0146 46.1832C70.0079 47.4295 69.6898 48.5099 69.06 49.4247C68.4369 50.3329 67.5354 51.0388 66.3555 51.5426C65.1822 52.0398 63.7669 52.2884 62.1097 52.2884C60.4658 52.2884 59.034 52.0365 57.8143 51.5327C56.6012 51.0289 55.6533 50.2831 54.9705 49.2955C54.2944 48.3011 53.9397 47.0715 53.9066 45.6065H58.0728C58.1192 46.2893 58.3147 46.8594 58.6594 47.3168C59.0108 47.7675 59.4781 48.1089 60.0614 48.3409C60.6514 48.5663 61.3176 48.679 62.06 48.679C62.7892 48.679 63.4222 48.5729 63.9592 48.3608C64.5027 48.1487 64.9237 47.8537 65.2219 47.4759C65.5202 47.098 65.6694 46.6638 65.6694 46.1733C65.6694 45.7159 65.5335 45.3314 65.2617 45.0199C64.9966 44.7083 64.6055 44.4432 64.0884 44.2244C63.578 44.0057 62.9516 43.8068 62.2092 43.6278L59.9918 43.071C58.275 42.6534 56.9194 42.0005 55.9251 41.1122C54.9308 40.224 54.4369 39.0275 54.4435 37.5227C54.4369 36.2898 54.765 35.2126 55.4279 34.2912C56.0974 33.3698 57.0155 32.6506 58.1822 32.1335C59.3488 31.6165 60.6746 31.358 62.1594 31.358C63.6708 31.358 64.9899 31.6165 66.1168 32.1335C67.2504 32.6506 68.132 33.3698 68.7617 34.2912C69.3915 35.2126 69.7163 36.2798 69.7362 37.4929H65.6097ZM75.9556 52H71.342L78.3718 31.6364H83.9201L90.94 52H86.3263L81.2255 36.2898H81.0664L75.9556 52ZM75.6673 43.9957H86.565V47.3565H75.6673V43.9957Z" fill="white"/>
<path d="M25.1449 73V63.5455H28.3395C29.0812 63.5455 29.6875 63.6793 30.1584 63.9471C30.6323 64.2118 30.9832 64.5703 31.2109 65.0227C31.4387 65.4751 31.5526 65.9799 31.5526 66.5369C31.5526 67.094 31.4387 67.6003 31.2109 68.0558C30.9863 68.5112 30.6385 68.8744 30.1676 69.1452C29.6967 69.413 29.0935 69.5469 28.358 69.5469H26.0682V68.5312H28.321C28.8288 68.5312 29.2366 68.4435 29.5444 68.2681C29.8522 68.0927 30.0753 67.8557 30.2138 67.5572C30.3554 67.2556 30.4261 66.9155 30.4261 66.5369C30.4261 66.1584 30.3554 65.8198 30.2138 65.5213C30.0753 65.2228 29.8506 64.9889 29.5398 64.8196C29.2289 64.6473 28.8165 64.5611 28.3026 64.5611H26.2898V73H25.1449ZM33.3968 73V63.5455H36.5914C37.3301 63.5455 37.9364 63.6716 38.4103 63.924C38.8843 64.1733 39.2351 64.5165 39.4629 64.9535C39.6906 65.3905 39.8045 65.8875 39.8045 66.4446C39.8045 67.0017 39.6906 67.4956 39.4629 67.9265C39.2351 68.3574 38.8858 68.6959 38.415 68.9421C37.9441 69.1853 37.3424 69.3068 36.6099 69.3068H34.0247V68.2727H36.573C37.0777 68.2727 37.484 68.1989 37.7917 68.0511C38.1026 67.9034 38.3272 67.6941 38.4657 67.4233C38.6073 67.1494 38.6781 66.8232 38.6781 66.4446C38.6781 66.0661 38.6073 65.7352 38.4657 65.4521C38.3242 65.1689 38.098 64.9504 37.7871 64.7965C37.4763 64.6396 37.0654 64.5611 36.5545 64.5611H34.5417V73H33.3968ZM37.8471 68.7528L40.1738 73H38.8443L36.5545 68.7528H37.8471ZM41.7123 73V63.5455H47.4182V64.5611H42.8572V67.7557H47.1228V68.7713H42.8572V71.9844H47.4921V73H41.7123ZM49.4818 63.5455H50.8483L54.0613 71.3935H54.1721L57.3852 63.5455H58.7517V73H57.6807V65.8168H57.5883L54.6338 73H53.5997L50.6452 65.8168H50.5528V73H49.4818V63.5455ZM62.1921 63.5455V73H61.0472V63.5455H62.1921ZM70.6922 63.5455H71.8371V69.8054C71.8371 70.4517 71.6847 71.0288 71.3801 71.5366C71.0785 72.0413 70.6522 72.4399 70.1013 72.7322C69.5504 73.0215 68.9041 73.1662 68.1624 73.1662C67.4207 73.1662 66.7744 73.0215 66.2235 72.7322C65.6726 72.4399 65.2448 72.0413 64.9401 71.5366C64.6385 71.0288 64.4877 70.4517 64.4877 69.8054V63.5455H65.6325V69.7131C65.6325 70.1747 65.7341 70.5856 65.9372 70.9457C66.1404 71.3027 66.4297 71.5843 66.8051 71.7905C67.1837 71.9936 67.6361 72.0952 68.1624 72.0952C68.6887 72.0952 69.1411 71.9936 69.5196 71.7905C69.8982 71.5843 70.1875 71.3027 70.3875 70.9457C70.5906 70.5856 70.6922 70.1747 70.6922 69.7131V63.5455ZM74.1234 63.5455H75.4899L78.7029 71.3935H78.8137L82.0268 63.5455H83.3933V73H82.3223V65.8168H82.2299L79.2754 73H78.2413L75.2868 65.8168H75.1944V73H74.1234V63.5455ZM89.7329 73H88.5326L92.0042 63.5455H93.186L96.6576 73H95.4573L92.632 65.0412H92.5581L89.7329 73ZM90.176 69.3068H95.0141V70.3224H90.176V69.3068ZM105.294 66.5H104.149C104.081 66.1707 103.963 65.8814 103.794 65.6321C103.627 65.3828 103.424 65.1735 103.184 65.0043C102.947 64.8319 102.684 64.7027 102.395 64.6165C102.105 64.5303 101.804 64.4872 101.49 64.4872C100.917 64.4872 100.399 64.6319 99.9341 64.9212C99.4725 65.2105 99.1047 65.6367 98.8308 66.1999C98.56 66.7631 98.4245 67.4541 98.4245 68.2727C98.4245 69.0914 98.56 69.7823 98.8308 70.3455C99.1047 70.9087 99.4725 71.335 99.9341 71.6243C100.399 71.9136 100.917 72.0582 101.49 72.0582C101.804 72.0582 102.105 72.0152 102.395 71.929C102.684 71.8428 102.947 71.7151 103.184 71.5458C103.424 71.3735 103.627 71.1626 103.794 70.9134C103.963 70.661 104.081 70.3717 104.149 70.0455H105.294C105.208 70.5286 105.051 70.9611 104.823 71.3427C104.595 71.7243 104.312 72.049 103.974 72.3168C103.635 72.5814 103.255 72.783 102.833 72.9215C102.415 73.06 101.967 73.1293 101.49 73.1293C100.684 73.1293 99.9664 72.9323 99.3386 72.5384C98.7108 72.1444 98.2168 71.5843 97.8567 70.858C97.4966 70.1316 97.3166 69.2699 97.3166 68.2727C97.3166 67.2756 97.4966 66.4138 97.8567 65.6875C98.2168 64.9612 98.7108 64.401 99.3386 64.0071C99.9664 63.6132 100.684 63.4162 101.49 63.4162C101.967 63.4162 102.415 63.4854 102.833 63.6239C103.255 63.7624 103.635 63.9656 103.974 64.2333C104.312 64.498 104.595 64.8211 104.823 65.2028C105.051 65.5813 105.208 66.0137 105.294 66.5ZM114.752 66.5H113.607C113.539 66.1707 113.421 65.8814 113.252 65.6321C113.085 65.3828 112.882 65.1735 112.642 65.0043C112.405 64.8319 112.142 64.7027 111.853 64.6165C111.563 64.5303 111.262 64.4872 110.948 64.4872C110.375 64.4872 109.857 64.6319 109.392 64.9212C108.93 65.2105 108.563 65.6367 108.289 66.1999C108.018 66.7631 107.883 67.4541 107.883 68.2727C107.883 69.0914 108.018 69.7823 108.289 70.3455C108.563 70.9087 108.93 71.335 109.392 71.6243C109.857 71.9136 110.375 72.0582 110.948 72.0582C111.262 72.0582 111.563 72.0152 111.853 71.929C112.142 71.8428 112.405 71.7151 112.642 71.5458C112.882 71.3735 113.085 71.1626 113.252 70.9134C113.421 70.661 113.539 70.3717 113.607 70.0455H114.752C114.666 70.5286 114.509 70.9611 114.281 71.3427C114.053 71.7243 113.77 72.049 113.432 72.3168C113.093 72.5814 112.713 72.783 112.291 72.9215C111.873 73.06 111.425 73.1293 110.948 73.1293C110.142 73.1293 109.424 72.9323 108.797 72.5384C108.169 72.1444 107.675 71.5843 107.315 70.858C106.955 70.1316 106.775 69.2699 106.775 68.2727C106.775 67.2756 106.955 66.4138 107.315 65.6875C107.675 64.9612 108.169 64.401 108.797 64.0071C109.424 63.6132 110.142 63.4162 110.948 63.4162C111.425 63.4162 111.873 63.4854 112.291 63.6239C112.713 63.7624 113.093 63.9656 113.432 64.2333C113.77 64.498 114.053 64.8211 114.281 65.2028C114.509 65.5813 114.666 66.0137 114.752 66.5ZM124.579 68.2727C124.579 69.2699 124.399 70.1316 124.039 70.858C123.679 71.5843 123.185 72.1444 122.557 72.5384C121.929 72.9323 121.212 73.1293 120.406 73.1293C119.6 73.1293 118.882 72.9323 118.255 72.5384C117.627 72.1444 117.133 71.5843 116.773 70.858C116.413 70.1316 116.233 69.2699 116.233 68.2727C116.233 67.2756 116.413 66.4138 116.773 65.6875C117.133 64.9612 117.627 64.401 118.255 64.0071C118.882 63.6132 119.6 63.4162 120.406 63.4162C121.212 63.4162 121.929 63.6132 122.557 64.0071C123.185 64.401 123.679 64.9612 124.039 65.6875C124.399 66.4138 124.579 67.2756 124.579 68.2727ZM123.471 68.2727C123.471 67.4541 123.334 66.7631 123.06 66.1999C122.79 65.6367 122.422 65.2105 121.957 64.9212C121.495 64.6319 120.978 64.4872 120.406 64.4872C119.833 64.4872 119.315 64.6319 118.85 64.9212C118.388 65.2105 118.021 65.6367 117.747 66.1999C117.476 66.7631 117.341 67.4541 117.341 68.2727C117.341 69.0914 117.476 69.7823 117.747 70.3455C118.021 70.9087 118.388 71.335 118.85 71.6243C119.315 71.9136 119.833 72.0582 120.406 72.0582C120.978 72.0582 121.495 71.9136 121.957 71.6243C122.422 71.335 122.79 70.9087 123.06 70.3455C123.334 69.7823 123.471 69.0914 123.471 68.2727ZM132.709 63.5455H133.854V69.8054C133.854 70.4517 133.701 71.0288 133.397 71.5366C133.095 72.0413 132.669 72.4399 132.118 72.7322C131.567 73.0215 130.921 73.1662 130.179 73.1662C129.437 73.1662 128.791 73.0215 128.24 72.7322C127.689 72.4399 127.261 72.0413 126.957 71.5366C126.655 71.0288 126.504 70.4517 126.504 69.8054V63.5455H127.649V69.7131C127.649 70.1747 127.751 70.5856 127.954 70.9457C128.157 71.3027 128.446 71.5843 128.822 71.7905C129.2 71.9936 129.653 72.0952 130.179 72.0952C130.705 72.0952 131.158 71.9936 131.536 71.7905C131.915 71.5843 132.204 71.3027 132.404 70.9457C132.607 70.5856 132.709 70.1747 132.709 69.7131V63.5455ZM143.637 63.5455V73H142.529L137.377 65.5767H137.285V73H136.14V63.5455H137.248L142.418 70.9872H142.511V63.5455H143.637ZM145.411 64.5611V63.5455H152.502V64.5611H149.529V73H148.384V64.5611H145.411Z" fill="white"/>
<circle opacity="0.25" cx="333.5" cy="59.5" r="35.5" fill="white"/>
<circle opacity="0.5" cx="377.52" cy="59.5" r="35.5" fill="white"/>
<path d="M11.6303 166.229C10.6067 166.229 9.68643 166.033 8.86967 165.641C8.05836 165.243 7.41039 164.699 6.92578 164.007C6.44117 163.316 6.18253 162.526 6.14986 161.638H8.60014C8.66004 162.357 8.97857 162.948 9.55575 163.411C10.1329 163.874 10.8245 164.105 11.6303 164.105C12.2728 164.105 12.8419 163.958 13.3374 163.664C13.8383 163.365 14.2304 162.953 14.5135 162.431C14.8021 161.908 14.9464 161.312 14.9464 160.642C14.9464 159.961 14.7994 159.354 14.5053 158.821C14.2113 158.287 13.8056 157.868 13.2884 157.563C12.7765 157.258 12.1884 157.103 11.5241 157.097C11.0178 157.097 10.5086 157.184 9.9968 157.359C9.48497 157.533 9.07114 157.762 8.75533 158.045L6.44389 157.702L7.38317 149.273H16.5799V151.437H9.48224L8.95135 156.117H9.04936C9.37607 155.801 9.80895 155.537 10.348 155.325C10.8925 155.113 11.4751 155.006 12.0959 155.006C13.1141 155.006 14.0207 155.249 14.8157 155.733C15.6161 156.218 16.245 156.879 16.7024 157.718C17.1652 158.551 17.3939 159.509 17.3885 160.593C17.3939 161.677 17.1489 162.643 16.6534 163.493C16.1634 164.342 15.4827 165.012 14.6115 165.502C13.7457 165.986 12.752 166.229 11.6303 166.229ZM20.9353 166L28.2371 151.56V151.437H19.7918V149.273H30.8508V151.511L23.5734 166H20.9353ZM39.0061 166.229C37.8354 166.229 36.8009 166.027 35.9024 165.624C35.0094 165.221 34.3097 164.666 33.8034 163.958C33.297 163.25 33.0465 162.444 33.0519 161.54C33.0465 160.833 33.1908 160.182 33.4848 159.588C33.7843 158.989 34.19 158.491 34.7018 158.094C35.2136 157.691 35.7854 157.435 36.417 157.326V157.228C35.5839 157.027 34.9169 156.58 34.4159 155.888C33.915 155.197 33.6672 154.402 33.6727 153.504C33.6672 152.649 33.8932 151.886 34.3506 151.217C34.8134 150.541 35.4478 150.011 36.2536 149.624C37.0595 149.237 37.977 149.044 39.0061 149.044C40.0244 149.044 40.9337 149.24 41.7341 149.632C42.54 150.019 43.1743 150.55 43.6372 151.225C44.1 151.895 44.3341 152.654 44.3396 153.504C44.3341 154.402 44.0782 155.197 43.5718 155.888C43.0654 156.58 42.4066 157.027 41.5953 157.228V157.326C42.2214 157.435 42.785 157.691 43.286 158.094C43.7923 158.491 44.1953 158.989 44.4948 159.588C44.7997 160.182 44.9549 160.833 44.9603 161.54C44.9549 162.444 44.699 163.25 44.1926 163.958C43.6862 164.666 42.9838 165.221 42.0853 165.624C41.1923 166.027 40.1659 166.229 39.0061 166.229ZM39.0061 164.162C39.6977 164.162 40.2966 164.048 40.803 163.819C41.3094 163.585 41.7014 163.261 41.9791 162.847C42.2568 162.428 42.3984 161.938 42.4039 161.377C42.3984 160.795 42.2459 160.28 41.9465 159.833C41.6524 159.387 41.2522 159.036 40.7458 158.78C40.2394 158.524 39.6595 158.396 39.0061 158.396C38.3473 158.396 37.7619 158.524 37.2501 158.78C36.7383 159.036 36.3353 159.387 36.0413 159.833C35.7472 160.28 35.603 160.795 35.6084 161.377C35.603 161.938 35.7364 162.428 36.0086 162.847C36.2863 163.261 36.6811 163.585 37.1929 163.819C37.7048 164.048 38.3092 164.162 39.0061 164.162ZM39.0061 156.379C39.5615 156.379 40.0543 156.267 40.4845 156.044C40.9146 155.82 41.2522 155.51 41.4972 155.113C41.7477 154.715 41.8757 154.25 41.8811 153.716C41.8757 153.193 41.7504 152.736 41.5054 152.344C41.2658 151.952 40.931 151.65 40.5008 151.437C40.0706 151.219 39.5724 151.11 39.0061 151.11C38.4289 151.11 37.9226 151.219 37.4869 151.437C37.0568 151.65 36.7219 151.952 36.4823 152.344C36.2428 152.736 36.1257 153.193 36.1311 153.716C36.1257 154.25 36.2455 154.715 36.4905 155.113C36.7355 155.51 37.0731 155.82 37.5033 156.044C37.9389 156.267 38.4398 156.379 39.0061 156.379ZM53.4485 149.044C54.1945 149.049 54.9296 149.186 55.6538 149.452C56.378 149.719 57.0314 150.155 57.614 150.759C58.2021 151.364 58.6703 152.18 59.0188 153.21C59.3728 154.233 59.5524 155.507 59.5579 157.032C59.5579 158.497 59.4109 159.801 59.1168 160.944C58.8228 162.082 58.4008 163.043 57.8509 163.827C57.3063 164.612 56.6448 165.208 55.8661 165.616C55.0875 166.025 54.2108 166.229 53.2362 166.229C52.2397 166.229 51.3549 166.033 50.5817 165.641C49.8085 165.249 49.1796 164.707 48.695 164.015C48.2103 163.318 47.9081 162.518 47.7884 161.614H50.2795C50.4428 162.333 50.775 162.915 51.2759 163.362C51.7823 163.803 52.4357 164.023 53.2362 164.023C54.4613 164.023 55.4169 163.49 56.103 162.423C56.7891 161.35 57.1348 159.853 57.1403 157.93H57.0096C56.7264 158.399 56.3725 158.802 55.9478 159.139C55.5285 159.477 55.0575 159.738 54.5348 159.923C54.0121 160.108 53.454 160.201 52.8604 160.201C51.8967 160.201 51.02 159.964 50.2305 159.49C49.4409 159.017 48.812 158.366 48.3438 157.538C47.8755 156.711 47.6413 155.766 47.6413 154.704C47.6413 153.648 47.8809 152.69 48.3601 151.829C48.8447 150.969 49.5199 150.288 50.3857 149.787C51.2569 149.281 52.2778 149.033 53.4485 149.044ZM53.4567 151.168C52.8196 151.168 52.2451 151.326 51.7333 151.641C51.2269 151.952 50.8267 152.374 50.5327 152.907C50.2386 153.435 50.0916 154.024 50.0916 154.672C50.0916 155.319 50.2332 155.908 50.5163 156.436C50.8049 156.958 51.197 157.375 51.6925 157.685C52.1934 157.99 52.7652 158.143 53.4077 158.143C53.8868 158.143 54.3333 158.05 54.7472 157.865C55.161 157.68 55.5231 157.424 55.8335 157.097C56.1438 156.765 56.3861 156.389 56.5604 155.97C56.7346 155.551 56.8217 155.11 56.8217 154.647C56.8217 154.032 56.6747 153.46 56.3807 152.932C56.0921 152.404 55.6946 151.979 55.1882 151.658C54.6818 151.331 54.1046 151.168 53.4567 151.168Z" fill="white"/>
<path d="M94.6129 158.682L94.7681 155.235L91.8604 157.105L90.9702 155.554L94.0575 153.977L90.9702 152.401L91.8604 150.849L94.7681 152.719L94.6129 149.273H96.3853L96.2301 152.719L99.1378 150.849L100.028 152.401L96.9407 153.977L100.028 155.554L99.1378 157.105L96.2301 155.235L96.3853 158.682H94.6129ZM112.694 158.682L112.849 155.235L109.941 157.105L109.051 155.554L112.139 153.977L109.051 152.401L109.941 150.849L112.849 152.719L112.694 149.273H114.466L114.311 152.719L117.219 150.849L118.109 152.401L115.022 153.977L118.109 155.554L117.219 157.105L114.311 155.235L114.466 158.682H112.694ZM130.775 158.682L130.93 155.235L128.023 157.105L127.132 155.554L130.22 153.977L127.132 152.401L128.023 150.849L130.93 152.719L130.775 149.273H132.547L132.392 152.719L135.3 150.849L136.19 152.401L133.103 153.977L136.19 155.554L135.3 157.105L132.392 155.235L132.547 158.682H130.775ZM148.856 158.682L149.011 155.235L146.104 157.105L145.213 155.554L148.301 153.977L145.213 152.401L146.104 150.849L149.011 152.719L148.856 149.273H150.628L150.473 152.719L153.381 150.849L154.271 152.401L151.184 153.977L154.271 155.554L153.381 157.105L150.473 155.235L150.628 158.682H148.856Z" fill="white"/>
<path d="M189.613 158.682L189.768 155.235L186.86 157.105L185.97 155.554L189.058 153.977L185.97 152.401L186.86 150.849L189.768 152.719L189.613 149.273H191.385L191.23 152.719L194.138 150.849L195.028 152.401L191.941 153.977L195.028 155.554L194.138 157.105L191.23 155.235L191.385 158.682H189.613ZM207.694 158.682L207.849 155.235L204.941 157.105L204.051 155.554L207.139 153.977L204.051 152.401L204.941 150.849L207.849 152.719L207.694 149.273H209.466L209.311 152.719L212.219 150.849L213.109 152.401L210.022 153.977L213.109 155.554L212.219 157.105L209.311 155.235L209.466 158.682H207.694ZM225.775 158.682L225.93 155.235L223.023 157.105L222.132 155.554L225.22 153.977L222.132 152.401L223.023 150.849L225.93 152.719L225.775 149.273H227.547L227.392 152.719L230.3 150.849L231.19 152.401L228.103 153.977L231.19 155.554L230.3 157.105L227.392 155.235L227.547 158.682H225.775ZM243.856 158.682L244.011 155.235L241.104 157.105L240.213 155.554L243.301 153.977L240.213 152.401L241.104 150.849L244.011 152.719L243.856 149.273H245.628L245.473 152.719L248.381 150.849L249.271 152.401L246.184 153.977L249.271 155.554L248.381 157.105L245.473 155.235L245.628 158.682H243.856Z" fill="white"/>
<path d="M281.109 166V164.17L286.769 158.306C287.374 157.669 287.872 157.111 288.264 156.632C288.661 156.147 288.958 155.687 289.154 155.251C289.35 154.816 289.448 154.353 289.448 153.863C289.448 153.308 289.317 152.828 289.056 152.425C288.795 152.017 288.438 151.704 287.986 151.486C287.534 151.263 287.025 151.151 286.459 151.151C285.86 151.151 285.337 151.274 284.891 151.519C284.444 151.764 284.101 152.11 283.862 152.556C283.622 153.003 283.502 153.525 283.502 154.124H281.093C281.093 153.106 281.327 152.216 281.795 151.453C282.263 150.691 282.906 150.1 283.723 149.681C284.539 149.256 285.468 149.044 286.508 149.044C287.559 149.044 288.484 149.254 289.285 149.673C290.091 150.087 290.72 150.653 291.172 151.372C291.623 152.085 291.849 152.891 291.849 153.789C291.849 154.41 291.732 155.017 291.498 155.611C291.27 156.204 290.869 156.866 290.298 157.596C289.726 158.32 288.931 159.199 287.913 160.234L284.588 163.713V163.836H292.119V166H281.109ZM300.866 166.229C299.696 166.229 298.661 166.027 297.763 165.624C296.87 165.221 296.17 164.666 295.664 163.958C295.157 163.25 294.907 162.444 294.912 161.54C294.907 160.833 295.051 160.182 295.345 159.588C295.645 158.989 296.05 158.491 296.562 158.094C297.074 157.691 297.646 157.435 298.277 157.326V157.228C297.444 157.027 296.777 156.58 296.276 155.888C295.775 155.197 295.528 154.402 295.533 153.504C295.528 152.649 295.754 151.886 296.211 151.217C296.674 150.541 297.308 150.011 298.114 149.624C298.92 149.237 299.837 149.044 300.866 149.044C301.885 149.044 302.794 149.24 303.594 149.632C304.4 150.019 305.035 150.55 305.498 151.225C305.96 151.895 306.194 152.654 306.2 153.504C306.194 154.402 305.939 155.197 305.432 155.888C304.926 156.58 304.267 157.027 303.456 157.228V157.326C304.082 157.435 304.645 157.691 305.146 158.094C305.653 158.491 306.056 158.989 306.355 159.588C306.66 160.182 306.815 160.833 306.821 161.54C306.815 162.444 306.559 163.25 306.053 163.958C305.547 164.666 304.844 165.221 303.946 165.624C303.053 166.027 302.026 166.229 300.866 166.229ZM300.866 164.162C301.558 164.162 302.157 164.048 302.663 163.819C303.17 163.585 303.562 163.261 303.839 162.847C304.117 162.428 304.259 161.938 304.264 161.377C304.259 160.795 304.106 160.28 303.807 159.833C303.513 159.387 303.113 159.036 302.606 158.78C302.1 158.524 301.52 158.396 300.866 158.396C300.208 158.396 299.622 158.524 299.11 158.78C298.599 159.036 298.196 159.387 297.902 159.833C297.608 160.28 297.463 160.795 297.469 161.377C297.463 161.938 297.597 162.428 297.869 162.847C298.147 163.261 298.541 163.585 299.053 163.819C299.565 164.048 300.17 164.162 300.866 164.162ZM300.866 156.379C301.422 156.379 301.915 156.267 302.345 156.044C302.775 155.82 303.113 155.51 303.358 155.113C303.608 154.715 303.736 154.25 303.741 153.716C303.736 153.193 303.611 152.736 303.366 152.344C303.126 151.952 302.791 151.65 302.361 151.437C301.931 151.219 301.433 151.11 300.866 151.11C300.289 151.11 299.783 151.219 299.347 151.437C298.917 151.65 298.582 151.952 298.343 152.344C298.103 152.736 297.986 153.193 297.991 153.716C297.986 154.25 298.106 154.715 298.351 155.113C298.596 155.51 298.933 155.82 299.364 156.044C299.799 156.267 300.3 156.379 300.866 156.379ZM309.396 162.733V160.691L316.624 149.273H318.233V152.278H317.212L312.042 160.462V160.593H321.949V162.733H309.396ZM317.326 166V162.112L317.343 161.181V149.273H319.736V166H317.326ZM325.359 166L332.661 151.56V151.437H324.216V149.273H335.275V151.511L327.997 166H325.359Z" fill="white"/>
<path d="M31.4063 226.5H30.4375C30.3802 226.221 30.2799 225.977 30.1367 225.766C29.9961 225.555 29.8242 225.378 29.6211 225.234C29.4206 225.089 29.1979 224.979 28.9531 224.906C28.7083 224.833 28.4531 224.797 28.1875 224.797C27.7031 224.797 27.2643 224.919 26.8711 225.164C26.4805 225.409 26.1693 225.77 25.9375 226.246C25.7083 226.723 25.5938 227.307 25.5938 228C25.5938 228.693 25.7083 229.277 25.9375 229.754C26.1693 230.23 26.4805 230.591 26.8711 230.836C27.2643 231.081 27.7031 231.203 28.1875 231.203C28.4531 231.203 28.7083 231.167 28.9531 231.094C29.1979 231.021 29.4206 230.913 29.6211 230.77C29.8242 230.624 29.9961 230.445 30.1367 230.234C30.2799 230.021 30.3802 229.776 30.4375 229.5H31.4063C31.3333 229.909 31.2005 230.275 31.0078 230.598C30.8151 230.921 30.5755 231.195 30.2891 231.422C30.0026 231.646 29.681 231.816 29.3242 231.934C28.9701 232.051 28.5911 232.109 28.1875 232.109C27.5052 232.109 26.8984 231.943 26.3672 231.609C25.8359 231.276 25.418 230.802 25.1133 230.187C24.8086 229.573 24.6563 228.844 24.6563 228C24.6563 227.156 24.8086 226.427 25.1133 225.812C25.418 225.198 25.8359 224.724 26.3672 224.391C26.8984 224.057 27.5052 223.891 28.1875 223.891C28.5911 223.891 28.9701 223.949 29.3242 224.066C29.681 224.184 30.0026 224.355 30.2891 224.582C30.5755 224.806 30.8151 225.079 31.0078 225.402C31.2005 225.723 31.3333 226.089 31.4063 226.5ZM34.6123 232.141C34.2321 232.141 33.887 232.069 33.5771 231.926C33.2673 231.78 33.0212 231.57 32.8389 231.297C32.6566 231.021 32.5654 230.687 32.5654 230.297C32.5654 229.953 32.6331 229.674 32.7686 229.461C32.904 229.245 33.085 229.076 33.3115 228.953C33.5381 228.831 33.7881 228.74 34.0615 228.68C34.3376 228.617 34.6149 228.568 34.8936 228.531C35.2581 228.484 35.5537 228.449 35.7803 228.426C36.0094 228.4 36.1761 228.357 36.2803 228.297C36.387 228.237 36.4404 228.133 36.4404 227.984V227.953C36.4404 227.568 36.335 227.268 36.124 227.055C35.9157 226.841 35.5993 226.734 35.1748 226.734C34.7347 226.734 34.3896 226.831 34.1396 227.023C33.8896 227.216 33.7139 227.422 33.6123 227.641L32.7373 227.328C32.8936 226.964 33.1019 226.68 33.3623 226.477C33.6253 226.271 33.9118 226.128 34.2217 226.047C34.5342 225.964 34.8415 225.922 35.1436 225.922C35.3363 225.922 35.5576 225.945 35.8076 225.992C36.0602 226.036 36.3037 226.129 36.5381 226.27C36.7751 226.41 36.9717 226.622 37.1279 226.906C37.2842 227.19 37.3623 227.57 37.3623 228.047V232H36.4404V231.187H36.3936C36.3311 231.318 36.2269 231.457 36.0811 231.605C35.9352 231.754 35.7412 231.88 35.499 231.984C35.2568 232.089 34.9613 232.141 34.6123 232.141ZM34.7529 231.312C35.1175 231.312 35.4248 231.241 35.6748 231.098C35.9274 230.954 36.1175 230.77 36.2451 230.543C36.3753 230.316 36.4404 230.078 36.4404 229.828V228.984C36.4014 229.031 36.3154 229.074 36.1826 229.113C36.0524 229.15 35.9014 229.182 35.7295 229.211C35.5602 229.237 35.3949 229.26 35.2334 229.281C35.0745 229.299 34.9456 229.315 34.8467 229.328C34.6071 229.359 34.3831 229.41 34.1748 229.48C33.9691 229.548 33.8024 229.651 33.6748 229.789C33.5498 229.924 33.4873 230.109 33.4873 230.344C33.4873 230.664 33.6058 230.906 33.8428 231.07C34.0824 231.232 34.3857 231.312 34.7529 231.312ZM39.0449 232V226H39.9355V226.906H39.998C40.1074 226.609 40.3053 226.368 40.5918 226.184C40.8783 225.999 41.2012 225.906 41.5605 225.906C41.6283 225.906 41.7129 225.908 41.8145 225.91C41.916 225.913 41.9928 225.917 42.0449 225.922V226.859C42.0137 226.852 41.9421 226.84 41.8301 226.824C41.7207 226.806 41.6048 226.797 41.4824 226.797C41.1908 226.797 40.9303 226.858 40.7012 226.98C40.4746 227.1 40.2949 227.267 40.1621 227.48C40.0319 227.691 39.9668 227.932 39.9668 228.203V232H39.0449ZM45.2207 232.125C44.7207 232.125 44.2793 231.999 43.8965 231.746C43.5137 231.491 43.2142 231.132 42.998 230.668C42.7819 230.202 42.6738 229.651 42.6738 229.016C42.6738 228.385 42.7819 227.839 42.998 227.375C43.2142 226.911 43.515 226.553 43.9004 226.301C44.2858 226.048 44.7311 225.922 45.2363 225.922C45.627 225.922 45.9355 225.987 46.1621 226.117C46.3913 226.245 46.5658 226.391 46.6855 226.555C46.8079 226.716 46.903 226.849 46.9707 226.953H47.0488V224H47.9707V232H47.0801V231.078H46.9707C46.903 231.187 46.8066 231.326 46.6816 231.492C46.5566 231.656 46.3783 231.803 46.1465 231.934C45.9147 232.061 45.6061 232.125 45.2207 232.125ZM45.3457 231.297C45.7155 231.297 46.028 231.201 46.2832 231.008C46.5384 230.812 46.7324 230.543 46.8652 230.199C46.998 229.853 47.0645 229.453 47.0645 229C47.0645 228.552 46.9993 228.16 46.8691 227.824C46.7389 227.486 46.5462 227.223 46.291 227.035C46.0358 226.845 45.7207 226.75 45.3457 226.75C44.9551 226.75 44.6296 226.85 44.3691 227.051C44.1113 227.249 43.9173 227.518 43.7871 227.859C43.6595 228.198 43.5957 228.578 43.5957 229C43.5957 229.427 43.6608 229.815 43.791 230.164C43.9238 230.51 44.1191 230.786 44.377 230.992C44.6374 231.195 44.9603 231.297 45.3457 231.297ZM53.8027 228.391V232H52.8809V224H53.8027V226.937H53.8809C54.0215 226.628 54.2324 226.382 54.5137 226.199C54.7975 226.014 55.1751 225.922 55.6465 225.922C56.0553 225.922 56.4134 226.004 56.7207 226.168C57.028 226.329 57.2663 226.578 57.4355 226.914C57.6074 227.247 57.6934 227.672 57.6934 228.188V232H56.7715V228.25C56.7715 227.773 56.6478 227.405 56.4004 227.145C56.1556 226.882 55.8158 226.75 55.3809 226.75C55.0788 226.75 54.8079 226.814 54.5684 226.941C54.3314 227.069 54.1439 227.255 54.0059 227.5C53.8704 227.745 53.8027 228.042 53.8027 228.391ZM61.8174 232.125C61.2757 232.125 60.8005 231.996 60.3916 231.738C59.9854 231.48 59.6676 231.12 59.4385 230.656C59.2119 230.193 59.0986 229.651 59.0986 229.031C59.0986 228.406 59.2119 227.861 59.4385 227.395C59.6676 226.928 59.9854 226.566 60.3916 226.309C60.8005 226.051 61.2757 225.922 61.8174 225.922C62.359 225.922 62.833 226.051 63.2393 226.309C63.6481 226.566 63.9658 226.928 64.1924 227.395C64.4215 227.861 64.5361 228.406 64.5361 229.031C64.5361 229.651 64.4215 230.193 64.1924 230.656C63.9658 231.12 63.6481 231.48 63.2393 231.738C62.833 231.996 62.359 232.125 61.8174 232.125ZM61.8174 231.297C62.2288 231.297 62.5674 231.191 62.833 230.98C63.0986 230.77 63.2952 230.492 63.4229 230.148C63.5505 229.805 63.6143 229.432 63.6143 229.031C63.6143 228.63 63.5505 228.257 63.4229 227.91C63.2952 227.564 63.0986 227.284 62.833 227.07C62.5674 226.857 62.2288 226.75 61.8174 226.75C61.4059 226.75 61.0674 226.857 60.8018 227.07C60.5361 227.284 60.3395 227.564 60.2119 227.91C60.0843 228.257 60.0205 228.63 60.0205 229.031C60.0205 229.432 60.0843 229.805 60.2119 230.148C60.3395 230.492 60.5361 230.77 60.8018 230.98C61.0674 231.191 61.4059 231.297 61.8174 231.297ZM66.8652 224V232H65.9434V224H66.8652ZM70.8193 232.125C70.3193 232.125 69.8779 231.999 69.4951 231.746C69.1123 231.491 68.8128 231.132 68.5967 230.668C68.3805 230.202 68.2725 229.651 68.2725 229.016C68.2725 228.385 68.3805 227.839 68.5967 227.375C68.8128 226.911 69.1136 226.553 69.499 226.301C69.8844 226.048 70.3298 225.922 70.835 225.922C71.2256 225.922 71.5342 225.987 71.7607 226.117C71.9899 226.245 72.1644 226.391 72.2842 226.555C72.4066 226.716 72.5016 226.849 72.5693 226.953H72.6475V224H73.5693V232H72.6787V231.078H72.5693C72.5016 231.187 72.4053 231.326 72.2803 231.492C72.1553 231.656 71.9769 231.803 71.7451 231.934C71.5133 232.061 71.2048 232.125 70.8193 232.125ZM70.9443 231.297C71.3141 231.297 71.6266 231.201 71.8818 231.008C72.137 230.812 72.3311 230.543 72.4639 230.199C72.5967 229.853 72.6631 229.453 72.6631 229C72.6631 228.552 72.598 228.16 72.4678 227.824C72.3376 227.486 72.1449 227.223 71.8896 227.035C71.6344 226.845 71.3193 226.75 70.9443 226.75C70.5537 226.75 70.2282 226.85 69.9678 227.051C69.71 227.249 69.516 227.518 69.3857 227.859C69.2581 228.198 69.1943 228.578 69.1943 229C69.1943 229.427 69.2594 229.815 69.3896 230.164C69.5225 230.51 69.7178 230.786 69.9756 230.992C70.236 231.195 70.5589 231.297 70.9443 231.297ZM77.9014 232.125C77.3232 232.125 76.8245 231.997 76.4053 231.742C75.9886 231.484 75.667 231.125 75.4404 230.664C75.2165 230.201 75.1045 229.661 75.1045 229.047C75.1045 228.432 75.2165 227.891 75.4404 227.422C75.667 226.951 75.9821 226.583 76.3857 226.32C76.792 226.055 77.266 225.922 77.8076 225.922C78.1201 225.922 78.4287 225.974 78.7334 226.078C79.0381 226.182 79.3154 226.352 79.5654 226.586C79.8154 226.818 80.0146 227.125 80.1631 227.508C80.3115 227.891 80.3857 228.362 80.3857 228.922V229.312H75.7607V228.516H79.4482C79.4482 228.177 79.3805 227.875 79.2451 227.609C79.1123 227.344 78.9222 227.134 78.6748 226.98C78.43 226.827 78.141 226.75 77.8076 226.75C77.4404 226.75 77.1227 226.841 76.8545 227.023C76.5889 227.203 76.3844 227.437 76.2412 227.727C76.098 228.016 76.0264 228.326 76.0264 228.656V229.188C76.0264 229.641 76.1045 230.025 76.2607 230.34C76.4196 230.652 76.6396 230.891 76.9209 231.055C77.2021 231.216 77.529 231.297 77.9014 231.297C78.1436 231.297 78.3623 231.263 78.5576 231.195C78.7555 231.125 78.9261 231.021 79.0693 230.883C79.2126 230.742 79.3232 230.568 79.4014 230.359L80.292 230.609C80.1982 230.911 80.0407 231.177 79.8193 231.406C79.598 231.633 79.3245 231.81 78.999 231.937C78.6735 232.063 78.3076 232.125 77.9014 232.125ZM81.7881 232V226H82.6787V226.906H82.7412C82.8506 226.609 83.0485 226.368 83.335 226.184C83.6214 225.999 83.9443 225.906 84.3037 225.906C84.3714 225.906 84.4561 225.908 84.5576 225.91C84.6592 225.913 84.736 225.917 84.7881 225.922V226.859C84.7568 226.852 84.6852 226.84 84.5732 226.824C84.4639 226.806 84.348 226.797 84.2256 226.797C83.9339 226.797 83.6735 226.858 83.4443 226.98C83.2178 227.1 83.0381 227.267 82.9053 227.48C82.7751 227.691 82.71 227.932 82.71 228.203V232H81.7881Z" fill="white"/>
<path d="M25.5181 250.182H28.0483L32.4474 260.923H32.6094L37.0085 250.182H39.5387V264H37.555V254.001H37.4268L33.3516 263.98H31.7053L27.63 253.994H27.5018V264H25.5181V250.182ZM42.4079 264V253.636H44.4253V264H42.4079ZM43.4268 252.037C43.0759 252.037 42.7745 251.92 42.5226 251.686C42.2752 251.448 42.1515 251.165 42.1515 250.836C42.1515 250.503 42.2752 250.22 42.5226 249.986C42.7745 249.748 43.0759 249.629 43.4268 249.629C43.7776 249.629 44.0767 249.748 44.3241 249.986C44.576 250.22 44.702 250.503 44.702 250.836C44.702 251.165 44.576 251.448 44.3241 251.686C44.0767 251.92 43.7776 252.037 43.4268 252.037ZM48.9949 260.485L48.9814 258.022H49.3322L53.4615 253.636H55.877L51.1674 258.629H50.8503L48.9949 260.485ZM47.1394 264V250.182H49.1568V264H47.1394ZM53.6841 264L49.9732 259.075L51.3631 257.664L56.1603 264H53.6841ZM61.7554 264.209C60.7343 264.209 59.855 263.991 59.1173 263.555C58.3841 263.114 57.8173 262.495 57.417 261.699C57.0212 260.899 56.8232 259.961 56.8232 258.886C56.8232 257.824 57.0212 256.888 57.417 256.079C57.8173 255.269 58.3751 254.637 59.0903 254.183C59.81 253.729 60.6511 253.501 61.6137 253.501C62.1985 253.501 62.7652 253.598 63.314 253.792C63.8628 253.985 64.3553 254.289 64.7916 254.702C65.228 255.116 65.5721 255.654 65.824 256.315C66.0758 256.972 66.2018 257.77 66.2018 258.71V259.425H57.9635V257.914H64.2249C64.2249 257.383 64.1169 256.913 63.901 256.504C63.6851 256.09 63.3815 255.764 62.9901 255.526C62.6033 255.287 62.149 255.168 61.6272 255.168C61.0605 255.168 60.5657 255.307 60.1428 255.586C59.7245 255.861 59.4007 256.221 59.1713 256.666C58.9463 257.107 58.8339 257.586 58.8339 258.103V259.284C58.8339 259.976 58.9553 260.566 59.1982 261.051C59.4456 261.537 59.7897 261.908 60.2306 262.165C60.6714 262.417 61.1864 262.543 61.7757 262.543C62.158 262.543 62.5066 262.489 62.8215 262.381C63.1363 262.268 63.4085 262.102 63.6379 261.881C63.8673 261.661 64.0427 261.389 64.1642 261.065L66.0736 261.409C65.9207 261.971 65.6463 262.464 65.2504 262.887C64.8591 263.305 64.3666 263.631 63.7728 263.865C63.1836 264.094 62.5111 264.209 61.7554 264.209ZM81.167 253.812C81.095 253.173 80.7981 252.678 80.2764 252.327C79.7546 251.972 79.0979 251.794 78.3062 251.794C77.7394 251.794 77.2491 251.884 76.8353 252.064C76.4215 252.24 76.0999 252.483 75.8705 252.793C75.6456 253.099 75.5331 253.447 75.5331 253.839C75.5331 254.167 75.6096 254.451 75.7625 254.689C75.92 254.927 76.1246 255.127 76.3765 255.289C76.6329 255.447 76.9073 255.58 77.1997 255.688C77.492 255.791 77.7732 255.876 78.0431 255.944L79.3925 256.295C79.8333 256.403 80.2854 256.549 80.7487 256.733C81.212 256.918 81.6415 257.161 82.0374 257.462C82.4332 257.763 82.7526 258.137 82.9955 258.582C83.2429 259.027 83.3666 259.56 83.3666 260.181C83.3666 260.964 83.1642 261.659 82.7593 262.266C82.359 262.873 81.7765 263.352 81.0118 263.703C80.2516 264.054 79.3318 264.229 78.2522 264.229C77.2177 264.229 76.3225 264.065 75.5669 263.737C74.8112 263.408 74.2197 262.943 73.7923 262.34C73.365 261.733 73.1289 261.013 73.0839 260.181H75.1755C75.216 260.68 75.3779 261.096 75.6613 261.429C75.9492 261.758 76.3158 262.003 76.7611 262.165C77.2109 262.322 77.7035 262.401 78.2387 262.401C78.828 262.401 79.352 262.309 79.8108 262.124C80.2741 261.935 80.6385 261.674 80.9039 261.342C81.1692 261.004 81.3019 260.611 81.3019 260.161C81.3019 259.752 81.185 259.416 80.9511 259.156C80.7217 258.895 80.4091 258.679 80.0132 258.508C79.6219 258.337 79.1788 258.186 78.684 258.056L77.0512 257.61C75.9447 257.309 75.0676 256.866 74.4198 256.281C73.7766 255.696 73.455 254.923 73.455 253.96C73.455 253.164 73.6709 252.469 74.1027 251.875C74.5345 251.282 75.1193 250.821 75.857 250.492C76.5947 250.159 77.4268 249.993 78.3534 249.993C79.289 249.993 80.1144 250.157 80.8296 250.485C81.5493 250.814 82.1161 251.266 82.5299 251.842C82.9437 252.413 83.1597 253.07 83.1776 253.812H81.167ZM85.696 264V253.636H87.6325V255.323H87.7607C87.9766 254.752 88.3297 254.307 88.82 253.987C89.3103 253.663 89.8973 253.501 90.581 253.501C91.2737 253.501 91.8539 253.663 92.3217 253.987C92.794 254.311 93.1426 254.756 93.3675 255.323H93.4755C93.7229 254.77 94.1165 254.329 94.6562 254.001C95.196 253.668 95.8393 253.501 96.5859 253.501C97.526 253.501 98.293 253.796 98.8867 254.385C99.485 254.975 99.7841 255.863 99.7841 257.05V264H97.7667V257.239C97.7667 256.538 97.5755 256.029 97.1932 255.714C96.8108 255.4 96.3543 255.242 95.8235 255.242C95.1668 255.242 94.6562 255.445 94.2919 255.849C93.9276 256.25 93.7454 256.765 93.7454 257.395V264H91.7347V257.111C91.7347 256.549 91.5593 256.097 91.2085 255.755C90.8576 255.413 90.401 255.242 89.8388 255.242C89.4564 255.242 89.1033 255.343 88.7795 255.546C88.4601 255.744 88.2015 256.02 88.0036 256.376C87.8101 256.731 87.7134 257.143 87.7134 257.61V264H85.696ZM102.488 264V253.636H104.505V264H102.488ZM103.507 252.037C103.156 252.037 102.855 251.92 102.603 251.686C102.355 251.448 102.232 251.165 102.232 250.836C102.232 250.503 102.355 250.22 102.603 249.986C102.855 249.748 103.156 249.629 103.507 249.629C103.858 249.629 104.157 249.748 104.404 249.986C104.656 250.22 104.782 250.503 104.782 250.836C104.782 251.165 104.656 251.448 104.404 251.686C104.157 251.92 103.858 252.037 103.507 252.037ZM112.057 253.636V255.256H106.396V253.636H112.057ZM107.914 251.153H109.932V260.957C109.932 261.348 109.99 261.643 110.107 261.841C110.224 262.034 110.375 262.167 110.559 262.239C110.748 262.306 110.953 262.34 111.173 262.34C111.335 262.34 111.477 262.329 111.598 262.306C111.72 262.284 111.814 262.266 111.882 262.252L112.246 263.919C112.129 263.964 111.963 264.009 111.747 264.054C111.531 264.103 111.261 264.13 110.937 264.135C110.406 264.144 109.912 264.049 109.453 263.852C108.994 263.654 108.623 263.348 108.339 262.934C108.056 262.52 107.914 262.001 107.914 261.375V251.153ZM116.529 257.847V264H114.511V250.182H116.502V255.323H116.63C116.873 254.765 117.244 254.322 117.743 253.994C118.243 253.666 118.895 253.501 119.7 253.501C120.411 253.501 121.031 253.648 121.562 253.94C122.098 254.232 122.511 254.669 122.804 255.249C123.101 255.825 123.249 256.544 123.249 257.408V264H121.232V257.651C121.232 256.891 121.036 256.301 120.645 255.883C120.253 255.46 119.709 255.249 119.012 255.249C118.535 255.249 118.108 255.35 117.73 255.553C117.357 255.755 117.062 256.052 116.846 256.443C116.635 256.83 116.529 257.298 116.529 257.847Z" fill="white"/>
<path d="M354.969 232V224H359.797V224.859H355.938V227.562H359.547V228.422H355.938V231.141H359.859V232H354.969ZM362.105 226L363.543 228.453L364.98 226H366.043L364.105 229L366.043 232H364.98L363.543 229.672L362.105 232H361.043L362.949 229L361.043 226H362.105ZM367.358 234.25V226H368.249V226.953H368.358C368.426 226.849 368.52 226.716 368.64 226.555C368.762 226.391 368.937 226.245 369.163 226.117C369.392 225.987 369.702 225.922 370.093 225.922C370.598 225.922 371.043 226.048 371.429 226.301C371.814 226.553 372.115 226.911 372.331 227.375C372.547 227.839 372.655 228.385 372.655 229.016C372.655 229.651 372.547 230.202 372.331 230.668C372.115 231.132 371.815 231.491 371.433 231.746C371.05 231.999 370.608 232.125 370.108 232.125C369.723 232.125 369.414 232.061 369.183 231.934C368.951 231.803 368.772 231.656 368.647 231.492C368.522 231.326 368.426 231.187 368.358 231.078H368.28V234.25H367.358ZM368.265 229C368.265 229.453 368.331 229.853 368.464 230.199C368.597 230.543 368.791 230.812 369.046 231.008C369.301 231.201 369.614 231.297 369.983 231.297C370.369 231.297 370.69 231.195 370.948 230.992C371.209 230.786 371.404 230.51 371.534 230.164C371.667 229.815 371.733 229.427 371.733 229C371.733 228.578 371.668 228.198 371.538 227.859C371.41 227.518 371.216 227.249 370.956 227.051C370.698 226.85 370.374 226.75 369.983 226.75C369.608 226.75 369.293 226.845 369.038 227.035C368.783 227.223 368.59 227.486 368.46 227.824C368.33 228.16 368.265 228.552 368.265 229ZM374.062 232V226H374.983V232H374.062ZM374.53 225C374.351 225 374.196 224.939 374.065 224.816C373.938 224.694 373.874 224.547 373.874 224.375C373.874 224.203 373.938 224.056 374.065 223.934C374.196 223.811 374.351 223.75 374.53 223.75C374.71 223.75 374.864 223.811 374.991 223.934C375.121 224.056 375.187 224.203 375.187 224.375C375.187 224.547 375.121 224.694 374.991 224.816C374.864 224.939 374.71 225 374.53 225ZM376.672 232V226H377.562V226.906H377.625C377.734 226.609 377.932 226.368 378.219 226.184C378.505 225.999 378.828 225.906 379.188 225.906C379.255 225.906 379.34 225.908 379.441 225.91C379.543 225.913 379.62 225.917 379.672 225.922V226.859C379.641 226.852 379.569 226.84 379.457 226.824C379.348 226.806 379.232 226.797 379.109 226.797C378.818 226.797 378.557 226.858 378.328 226.98C378.102 227.1 377.922 227.267 377.789 227.48C377.659 227.691 377.594 227.932 377.594 228.203V232H376.672ZM383.098 232.125C382.52 232.125 382.021 231.997 381.602 231.742C381.185 231.484 380.863 231.125 380.637 230.664C380.413 230.201 380.301 229.661 380.301 229.047C380.301 228.432 380.413 227.891 380.637 227.422C380.863 226.951 381.178 226.583 381.582 226.32C381.988 226.055 382.462 225.922 383.004 225.922C383.316 225.922 383.625 225.974 383.93 226.078C384.234 226.182 384.512 226.352 384.762 226.586C385.012 226.818 385.211 227.125 385.359 227.508C385.508 227.891 385.582 228.362 385.582 228.922V229.312H380.957V228.516H384.645C384.645 228.177 384.577 227.875 384.441 227.609C384.309 227.344 384.118 227.134 383.871 226.98C383.626 226.827 383.337 226.75 383.004 226.75C382.637 226.75 382.319 226.841 382.051 227.023C381.785 227.203 381.581 227.437 381.438 227.727C381.294 228.016 381.223 228.326 381.223 228.656V229.188C381.223 229.641 381.301 230.025 381.457 230.34C381.616 230.652 381.836 230.891 382.117 231.055C382.398 231.216 382.725 231.297 383.098 231.297C383.34 231.297 383.559 231.263 383.754 231.195C383.952 231.125 384.122 231.021 384.266 230.883C384.409 230.742 384.52 230.568 384.598 230.359L385.488 230.609C385.395 230.911 385.237 231.177 385.016 231.406C384.794 231.633 384.521 231.81 384.195 231.937C383.87 232.063 383.504 232.125 383.098 232.125ZM392.344 232.125C391.844 232.125 391.402 231.999 391.02 231.746C390.637 231.491 390.337 231.132 390.121 230.668C389.905 230.202 389.797 229.651 389.797 229.016C389.797 228.385 389.905 227.839 390.121 227.375C390.337 226.911 390.638 226.553 391.023 226.301C391.409 226.048 391.854 225.922 392.359 225.922C392.75 225.922 393.059 225.987 393.285 226.117C393.514 226.245 393.689 226.391 393.809 226.555C393.931 226.716 394.026 226.849 394.094 226.953H394.172V224H395.094V232H394.203V231.078H394.094C394.026 231.187 393.93 231.326 393.805 231.492C393.68 231.656 393.501 231.803 393.27 231.934C393.038 232.061 392.729 232.125 392.344 232.125ZM392.469 231.297C392.839 231.297 393.151 231.201 393.406 231.008C393.661 230.812 393.855 230.543 393.988 230.199C394.121 229.853 394.188 229.453 394.188 229C394.188 228.552 394.122 228.16 393.992 227.824C393.862 227.486 393.669 227.223 393.414 227.035C393.159 226.845 392.844 226.75 392.469 226.75C392.078 226.75 391.753 226.85 391.492 227.051C391.234 227.249 391.04 227.518 390.91 227.859C390.783 228.198 390.719 228.578 390.719 229C390.719 229.427 390.784 229.815 390.914 230.164C391.047 230.51 391.242 230.786 391.5 230.992C391.76 231.195 392.083 231.297 392.469 231.297ZM398.676 232.141C398.296 232.141 397.951 232.069 397.641 231.926C397.331 231.78 397.085 231.57 396.902 231.297C396.72 231.021 396.629 230.687 396.629 230.297C396.629 229.953 396.697 229.674 396.832 229.461C396.967 229.245 397.148 229.076 397.375 228.953C397.602 228.831 397.852 228.74 398.125 228.68C398.401 228.617 398.678 228.568 398.957 228.531C399.322 228.484 399.617 228.449 399.844 228.426C400.073 228.4 400.24 228.357 400.344 228.297C400.451 228.237 400.504 228.133 400.504 227.984V227.953C400.504 227.568 400.398 227.268 400.188 227.055C399.979 226.841 399.663 226.734 399.238 226.734C398.798 226.734 398.453 226.831 398.203 227.023C397.953 227.216 397.777 227.422 397.676 227.641L396.801 227.328C396.957 226.964 397.165 226.68 397.426 226.477C397.689 226.271 397.975 226.128 398.285 226.047C398.598 225.964 398.905 225.922 399.207 225.922C399.4 225.922 399.621 225.945 399.871 225.992C400.124 226.036 400.367 226.129 400.602 226.27C400.839 226.41 401.035 226.622 401.191 226.906C401.348 227.19 401.426 227.57 401.426 228.047V232H400.504V231.187H400.457C400.395 231.318 400.29 231.457 400.145 231.605C399.999 231.754 399.805 231.88 399.563 231.984C399.32 232.089 399.025 232.141 398.676 232.141ZM398.816 231.312C399.181 231.312 399.488 231.241 399.738 231.098C399.991 230.954 400.181 230.77 400.309 230.543C400.439 230.316 400.504 230.078 400.504 229.828V228.984C400.465 229.031 400.379 229.074 400.246 229.113C400.116 229.15 399.965 229.182 399.793 229.211C399.624 229.237 399.458 229.26 399.297 229.281C399.138 229.299 399.009 229.315 398.91 229.328C398.671 229.359 398.447 229.41 398.238 229.48C398.033 229.548 397.866 229.651 397.738 229.789C397.613 229.924 397.551 230.109 397.551 230.344C397.551 230.664 397.669 230.906 397.906 231.07C398.146 231.232 398.449 231.312 398.816 231.312ZM405.718 226V226.781H402.608V226H405.718ZM403.515 224.562H404.437V230.281C404.437 230.542 404.474 230.737 404.55 230.867C404.628 230.995 404.727 231.081 404.847 231.125C404.969 231.167 405.098 231.187 405.233 231.187C405.335 231.187 405.418 231.182 405.483 231.172C405.549 231.159 405.601 231.148 405.64 231.141L405.827 231.969C405.765 231.992 405.677 232.016 405.565 232.039C405.453 232.065 405.312 232.078 405.14 232.078C404.879 232.078 404.624 232.022 404.374 231.91C404.127 231.798 403.921 231.628 403.757 231.398C403.595 231.169 403.515 230.88 403.515 230.531V224.562ZM409.556 232.125C408.978 232.125 408.479 231.997 408.06 231.742C407.643 231.484 407.321 231.125 407.095 230.664C406.871 230.201 406.759 229.661 406.759 229.047C406.759 228.432 406.871 227.891 407.095 227.422C407.321 226.951 407.636 226.583 408.04 226.32C408.446 226.055 408.92 225.922 409.462 225.922C409.774 225.922 410.083 225.974 410.388 226.078C410.692 226.182 410.97 226.352 411.22 226.586C411.47 226.818 411.669 227.125 411.817 227.508C411.966 227.891 412.04 228.362 412.04 228.922V229.312H407.415V228.516H411.103C411.103 228.177 411.035 227.875 410.899 227.609C410.767 227.344 410.576 227.134 410.329 226.98C410.084 226.827 409.795 226.75 409.462 226.75C409.095 226.75 408.777 226.841 408.509 227.023C408.243 227.203 408.039 227.437 407.896 227.727C407.752 228.016 407.681 228.326 407.681 228.656V229.188C407.681 229.641 407.759 230.025 407.915 230.34C408.074 230.652 408.294 230.891 408.575 231.055C408.856 231.216 409.183 231.297 409.556 231.297C409.798 231.297 410.017 231.263 410.212 231.195C410.41 231.125 410.58 231.021 410.724 230.883C410.867 230.742 410.978 230.568 411.056 230.359L411.946 230.609C411.853 230.911 411.695 231.177 411.474 231.406C411.252 231.633 410.979 231.81 410.653 231.937C410.328 232.063 409.962 232.125 409.556 232.125Z" fill="white"/>
<path d="M360.14 264.229C359.074 264.225 358.163 263.944 357.407 263.386C356.652 262.828 356.074 262.016 355.673 260.95C355.273 259.884 355.073 258.6 355.073 257.098C355.073 255.6 355.273 254.32 355.673 253.259C356.078 252.197 356.658 251.387 357.414 250.83C358.174 250.272 359.083 249.993 360.14 249.993C361.197 249.993 362.103 250.274 362.859 250.836C363.615 251.394 364.193 252.204 364.593 253.265C364.998 254.322 365.2 255.6 365.2 257.098C365.2 258.605 365 259.891 364.6 260.957C364.199 262.019 363.621 262.83 362.866 263.393C362.11 263.951 361.201 264.229 360.14 264.229ZM360.14 262.428C361.076 262.428 361.806 261.971 362.333 261.058C362.864 260.145 363.129 258.825 363.129 257.098C363.129 255.951 363.007 254.981 362.765 254.19C362.526 253.393 362.182 252.791 361.732 252.381C361.287 251.968 360.756 251.761 360.14 251.761C359.209 251.761 358.478 252.219 357.947 253.137C357.416 254.055 357.149 255.375 357.144 257.098C357.144 258.249 357.263 259.223 357.502 260.019C357.745 260.811 358.089 261.411 358.534 261.821C358.979 262.225 359.515 262.428 360.14 262.428ZM372.418 264.189C371.802 264.18 371.195 264.067 370.596 263.852C370.003 263.636 369.463 263.276 368.977 262.772C368.491 262.268 368.102 261.591 367.81 260.741C367.522 259.891 367.378 258.829 367.378 257.556C367.378 256.351 367.497 255.28 367.736 254.345C367.978 253.409 368.327 252.62 368.781 251.977C369.236 251.329 369.784 250.836 370.428 250.499C371.071 250.162 371.793 249.993 372.593 249.993C373.417 249.993 374.148 250.155 374.786 250.479C375.425 250.803 375.942 251.25 376.338 251.821C376.738 252.393 376.993 253.043 377.101 253.771H375.043C374.903 253.196 374.627 252.725 374.213 252.361C373.799 251.997 373.259 251.815 372.593 251.815C371.581 251.815 370.792 252.255 370.225 253.137C369.663 254.019 369.38 255.244 369.375 256.814H369.476C369.715 256.423 370.007 256.09 370.353 255.816C370.704 255.537 371.096 255.323 371.527 255.175C371.964 255.022 372.423 254.945 372.904 254.945C373.705 254.945 374.429 255.141 375.076 255.532C375.729 255.919 376.248 256.454 376.635 257.138C377.022 257.822 377.215 258.605 377.215 259.486C377.215 260.368 377.015 261.166 376.615 261.881C376.219 262.597 375.661 263.163 374.941 263.582C374.222 263.996 373.381 264.198 372.418 264.189ZM372.411 262.435C372.942 262.435 373.417 262.304 373.835 262.043C374.253 261.782 374.584 261.432 374.827 260.991C375.07 260.55 375.191 260.057 375.191 259.513C375.191 258.982 375.072 258.499 374.834 258.062C374.6 257.626 374.276 257.28 373.862 257.023C373.453 256.767 372.985 256.639 372.459 256.639C372.058 256.639 371.687 256.715 371.345 256.868C371.008 257.021 370.711 257.233 370.455 257.502C370.198 257.772 369.996 258.083 369.847 258.434C369.703 258.78 369.631 259.147 369.631 259.533C369.631 260.051 369.751 260.53 369.989 260.971C370.232 261.411 370.563 261.767 370.981 262.037C371.404 262.302 371.881 262.435 372.411 262.435ZM384.963 249.534L380.51 266.078H378.708L383.161 249.534H384.963ZM386.65 264V262.489L391.325 257.644C391.825 257.118 392.236 256.657 392.56 256.261C392.888 255.861 393.134 255.481 393.295 255.121C393.457 254.761 393.538 254.379 393.538 253.974C393.538 253.515 393.43 253.119 393.214 252.786C392.999 252.449 392.704 252.19 392.331 252.01C391.957 251.826 391.537 251.734 391.069 251.734C390.574 251.734 390.142 251.835 389.773 252.037C389.405 252.24 389.121 252.525 388.923 252.894C388.725 253.263 388.626 253.695 388.626 254.19H386.636C386.636 253.348 386.829 252.613 387.216 251.983C387.603 251.354 388.134 250.866 388.809 250.519C389.483 250.168 390.25 249.993 391.109 249.993C391.978 249.993 392.742 250.166 393.403 250.512C394.069 250.854 394.589 251.322 394.962 251.916C395.335 252.505 395.522 253.171 395.522 253.913C395.522 254.426 395.425 254.927 395.232 255.418C395.043 255.908 394.712 256.454 394.24 257.057C393.768 257.655 393.111 258.382 392.27 259.237L389.524 262.111V262.212H395.745V264H386.65ZM403.544 250.182V264H401.453V252.273H401.372L398.066 254.433V252.435L401.513 250.182H403.544Z" fill="white"/>
</svg>
