<svg width="369" height="276" viewBox="0 0 369 276" fill="none" xmlns="http://www.w3.org/2000/svg">
<g id="Graphic Side">
<g clip-path="url(#clip0_47_4698)">
<circle id="Ellipse 126" cx="-58.5" cy="40.5" r="192.5" fill="url(#paint0_radial_47_4698)"/>
<circle id="Ellipse 127" cx="313.5" cy="153.5" r="186.5" fill="url(#paint1_radial_47_4698)"/>
<g id="Group 383">
<g id="Card" filter="url(#filter0_b_47_4698)">
<g clip-path="url(#clip1_47_4698)">
<rect x="16" y="28.9999" width="342" height="221" rx="24" fill="white" fill-opacity="0.25"/>
<g id="Frame 404">
<g id="Frame 406">
<g id="Frame 400">
<path id="VISA" d="M45.4489 60.6362L50.3707 76.1078H50.5597L55.4915 60.6362H60.2642L53.2443 80.9999H47.696L40.6662 60.6362H45.4489ZM67.0206 60.6362V80.9999H62.7152V60.6362H67.0206ZM81.6097 66.4928C81.5302 65.6907 81.1888 65.0676 80.5856 64.6235C79.9824 64.1793 79.1637 63.9573 78.1296 63.9573C77.427 63.9573 76.8337 64.0567 76.3498 64.2556C75.8659 64.4478 75.4947 64.7163 75.2362 65.061C74.9843 65.4057 74.8583 65.7968 74.8583 66.2343C74.8451 66.5988 74.9213 66.917 75.087 67.1888C75.2594 67.4606 75.4947 67.6959 75.793 67.8948C76.0913 68.087 76.436 68.256 76.8271 68.4019C77.2182 68.5411 77.6358 68.6604 78.0799 68.7598L79.9094 69.1973C80.7977 69.3962 81.613 69.6613 82.3555 69.9928C83.0979 70.3242 83.7409 70.7319 84.2844 71.2158C84.828 71.6997 85.2489 72.2698 85.5472 72.926C85.8522 73.5823 86.0079 74.3346 86.0146 75.1831C86.0079 76.4293 85.6898 77.5098 85.06 78.4246C84.4369 79.3327 83.5354 80.0387 82.3555 80.5425C81.1822 81.0397 79.7669 81.2882 78.1097 81.2882C76.4658 81.2882 75.034 81.0363 73.8143 80.5325C72.6012 80.0288 71.6533 79.283 70.9705 78.2953C70.2944 77.301 69.9397 76.0714 69.9066 74.6064H74.0728C74.1192 75.2892 74.3147 75.8593 74.6594 76.3166C75.0108 76.7674 75.4781 77.1088 76.0614 77.3408C76.6514 77.5662 77.3176 77.6789 78.06 77.6789C78.7892 77.6789 79.4222 77.5728 79.9592 77.3607C80.5027 77.1486 80.9237 76.8536 81.2219 76.4757C81.5202 76.0979 81.6694 75.6637 81.6694 75.1732C81.6694 74.7158 81.5335 74.3313 81.2617 74.0198C80.9966 73.7082 80.6055 73.4431 80.0884 73.2243C79.578 73.0056 78.9516 72.8067 78.2092 72.6277L75.9918 72.0709C74.275 71.6533 72.9194 71.0004 71.9251 70.1121C70.9308 69.2238 70.4369 68.0273 70.4435 66.5226C70.4369 65.2896 70.765 64.2125 71.4279 63.2911C72.0974 62.3697 73.0155 61.6504 74.1822 61.1334C75.3488 60.6164 76.6746 60.3578 78.1594 60.3578C79.6708 60.3578 80.9899 60.6164 82.1168 61.1334C83.2504 61.6504 84.132 62.3697 84.7617 63.2911C85.3915 64.2125 85.7163 65.2797 85.7362 66.4928H81.6097ZM91.9556 80.9999H87.342L94.3718 60.6362H99.9201L106.94 80.9999H102.326L97.2255 65.2897H97.0664L91.9556 80.9999ZM91.6673 72.9956H102.565V76.3564H91.6673V72.9956Z" fill="white"/>
<path id="PREMIUM ACCOUNT" d="M41.1449 102V92.5453H44.3395C45.0812 92.5453 45.6875 92.6792 46.1584 92.947C46.6323 93.2116 46.9832 93.5702 47.2109 94.0226C47.4387 94.475 47.5526 94.9798 47.5526 95.5368C47.5526 96.0939 47.4387 96.6001 47.2109 97.0556C46.9863 97.5111 46.6385 97.8743 46.1676 98.1451C45.6967 98.4129 45.0935 98.5468 44.358 98.5468H42.0682V97.5311H44.321C44.8288 97.5311 45.2366 97.4434 45.5444 97.268C45.8522 97.0926 46.0753 96.8556 46.2138 96.5571C46.3554 96.2554 46.4261 95.9154 46.4261 95.5368C46.4261 95.1583 46.3554 94.8197 46.2138 94.5212C46.0753 94.2227 45.8506 93.9888 45.5398 93.8195C45.2289 93.6471 44.8165 93.561 44.3026 93.561H42.2898V102H41.1449ZM49.3968 102V92.5453H52.5914C53.3301 92.5453 53.9364 92.6715 54.4103 92.9239C54.8843 93.1732 55.2351 93.5163 55.4629 93.9534C55.6906 94.3904 55.8045 94.8874 55.8045 95.4445C55.8045 96.0015 55.6906 96.4955 55.4629 96.9264C55.2351 97.3572 54.8858 97.6958 54.415 97.942C53.9441 98.1851 53.3424 98.3067 52.6099 98.3067H50.0247V97.2726H52.573C53.0777 97.2726 53.484 97.1987 53.7917 97.051C54.1026 96.9033 54.3272 96.694 54.4657 96.4232C54.6073 96.1493 54.6781 95.823 54.6781 95.4445C54.6781 95.0659 54.6073 94.7351 54.4657 94.4519C54.3242 94.1688 54.098 93.9503 53.7871 93.7964C53.4763 93.6394 53.0654 93.561 52.5545 93.561H50.5417V102H49.3968ZM53.8471 97.7527L56.1738 102H54.8443L52.5545 97.7527H53.8471ZM57.7123 102V92.5453H63.4182V93.561H58.8572V96.7556H63.1228V97.7712H58.8572V100.984H63.4921V102H57.7123ZM65.4818 92.5453H66.8483L70.0613 100.393H70.1721L73.3852 92.5453H74.7517V102H73.6807V94.8166H73.5883L70.6338 102H69.5997L66.6452 94.8166H66.5528V102H65.4818V92.5453ZM78.1921 92.5453V102H77.0472V92.5453H78.1921ZM86.6922 92.5453H87.8371V98.8053C87.8371 99.4516 87.6847 100.029 87.3801 100.536C87.0785 101.041 86.6522 101.44 86.1013 101.732C85.5504 102.021 84.9041 102.166 84.1624 102.166C83.4207 102.166 82.7744 102.021 82.2235 101.732C81.6726 101.44 81.2448 101.041 80.9401 100.536C80.6385 100.029 80.4877 99.4516 80.4877 98.8053V92.5453H81.6325V98.7129C81.6325 99.1746 81.7341 99.5855 81.9372 99.9455C82.1404 100.303 82.4297 100.584 82.8051 100.79C83.1837 100.993 83.6361 101.095 84.1624 101.095C84.6887 101.095 85.1411 100.993 85.5196 100.79C85.8982 100.584 86.1875 100.303 86.3875 99.9455C86.5906 99.5855 86.6922 99.1746 86.6922 98.7129V92.5453ZM90.1234 92.5453H91.4899L94.7029 100.393H94.8137L98.0268 92.5453H99.3933V102H98.3223V94.8166H98.2299L95.2754 102H94.2413L91.2868 94.8166H91.1944V102H90.1234V92.5453ZM105.733 102H104.533L108.004 92.5453H109.186L112.658 102H111.457L108.632 94.0411H108.558L105.733 102ZM106.176 98.3067H111.014V99.3223H106.176V98.3067ZM121.294 95.4999H120.149C120.081 95.1706 119.963 94.8813 119.794 94.632C119.627 94.3827 119.424 94.1734 119.184 94.0041C118.947 93.8318 118.684 93.7025 118.395 93.6164C118.105 93.5302 117.804 93.4871 117.49 93.4871C116.917 93.4871 116.399 93.6317 115.934 93.921C115.472 94.2103 115.105 94.6366 114.831 95.1998C114.56 95.763 114.425 96.4539 114.425 97.2726C114.425 98.0913 114.56 98.7822 114.831 99.3454C115.105 99.9086 115.472 100.335 115.934 100.624C116.399 100.913 116.917 101.058 117.49 101.058C117.804 101.058 118.105 101.015 118.395 100.929C118.684 100.843 118.947 100.715 119.184 100.546C119.424 100.373 119.627 100.163 119.794 99.9132C119.963 99.6609 120.081 99.3716 120.149 99.0453H121.294C121.208 99.5285 121.051 99.9609 120.823 100.343C120.595 100.724 120.312 101.049 119.974 101.317C119.635 101.581 119.255 101.783 118.833 101.921C118.415 102.06 117.967 102.129 117.49 102.129C116.684 102.129 115.966 101.932 115.339 101.538C114.711 101.144 114.217 100.584 113.857 99.8578C113.497 99.1315 113.317 98.2698 113.317 97.2726C113.317 96.2754 113.497 95.4137 113.857 94.6874C114.217 93.9611 114.711 93.4009 115.339 93.007C115.966 92.613 116.684 92.4161 117.49 92.4161C117.967 92.4161 118.415 92.4853 118.833 92.6238C119.255 92.7623 119.635 92.9654 119.974 93.2332C120.312 93.4979 120.595 93.821 120.823 94.2026C121.051 94.5812 121.208 95.0136 121.294 95.4999ZM130.752 95.4999H129.607C129.539 95.1706 129.421 94.8813 129.252 94.632C129.085 94.3827 128.882 94.1734 128.642 94.0041C128.405 93.8318 128.142 93.7025 127.853 93.6164C127.563 93.5302 127.262 93.4871 126.948 93.4871C126.375 93.4871 125.857 93.6317 125.392 93.921C124.93 94.2103 124.563 94.6366 124.289 95.1998C124.018 95.763 123.883 96.4539 123.883 97.2726C123.883 98.0913 124.018 98.7822 124.289 99.3454C124.563 99.9086 124.93 100.335 125.392 100.624C125.857 100.913 126.375 101.058 126.948 101.058C127.262 101.058 127.563 101.015 127.853 100.929C128.142 100.843 128.405 100.715 128.642 100.546C128.882 100.373 129.085 100.163 129.252 99.9132C129.421 99.6609 129.539 99.3716 129.607 99.0453H130.752C130.666 99.5285 130.509 99.9609 130.281 100.343C130.053 100.724 129.77 101.049 129.432 101.317C129.093 101.581 128.713 101.783 128.291 101.921C127.873 102.06 127.425 102.129 126.948 102.129C126.142 102.129 125.424 101.932 124.797 101.538C124.169 101.144 123.675 100.584 123.315 99.8578C122.955 99.1315 122.775 98.2698 122.775 97.2726C122.775 96.2754 122.955 95.4137 123.315 94.6874C123.675 93.9611 124.169 93.4009 124.797 93.007C125.424 92.613 126.142 92.4161 126.948 92.4161C127.425 92.4161 127.873 92.4853 128.291 92.6238C128.713 92.7623 129.093 92.9654 129.432 93.2332C129.77 93.4979 130.053 93.821 130.281 94.2026C130.509 94.5812 130.666 95.0136 130.752 95.4999ZM140.579 97.2726C140.579 98.2698 140.399 99.1315 140.039 99.8578C139.679 100.584 139.185 101.144 138.557 101.538C137.929 101.932 137.212 102.129 136.406 102.129C135.6 102.129 134.882 101.932 134.255 101.538C133.627 101.144 133.133 100.584 132.773 99.8578C132.413 99.1315 132.233 98.2698 132.233 97.2726C132.233 96.2754 132.413 95.4137 132.773 94.6874C133.133 93.9611 133.627 93.4009 134.255 93.007C134.882 92.613 135.6 92.4161 136.406 92.4161C137.212 92.4161 137.929 92.613 138.557 93.007C139.185 93.4009 139.679 93.9611 140.039 94.6874C140.399 95.4137 140.579 96.2754 140.579 97.2726ZM139.471 97.2726C139.471 96.4539 139.334 95.763 139.06 95.1998C138.79 94.6366 138.422 94.2103 137.957 93.921C137.495 93.6317 136.978 93.4871 136.406 93.4871C135.833 93.4871 135.315 93.6317 134.85 93.921C134.388 94.2103 134.021 94.6366 133.747 95.1998C133.476 95.763 133.341 96.4539 133.341 97.2726C133.341 98.0913 133.476 98.7822 133.747 99.3454C134.021 99.9086 134.388 100.335 134.85 100.624C135.315 100.913 135.833 101.058 136.406 101.058C136.978 101.058 137.495 100.913 137.957 100.624C138.422 100.335 138.79 99.9086 139.06 99.3454C139.334 98.7822 139.471 98.0913 139.471 97.2726ZM148.709 92.5453H149.854V98.8053C149.854 99.4516 149.701 100.029 149.397 100.536C149.095 101.041 148.669 101.44 148.118 101.732C147.567 102.021 146.921 102.166 146.179 102.166C145.437 102.166 144.791 102.021 144.24 101.732C143.689 101.44 143.261 101.041 142.957 100.536C142.655 100.029 142.504 99.4516 142.504 98.8053V92.5453H143.649V98.7129C143.649 99.1746 143.751 99.5855 143.954 99.9455C144.157 100.303 144.446 100.584 144.822 100.79C145.2 100.993 145.653 101.095 146.179 101.095C146.705 101.095 147.158 100.993 147.536 100.79C147.915 100.584 148.204 100.303 148.404 99.9455C148.607 99.5855 148.709 99.1746 148.709 98.7129V92.5453ZM159.637 92.5453V102H158.529L153.377 94.5766H153.285V102H152.14V92.5453H153.248L158.418 99.9871H158.511V92.5453H159.637ZM161.411 93.561V92.5453H168.502V93.561H165.529V102H164.384V93.561H161.411Z" fill="white"/>
</g>
<g id="Group 253">
<circle id="Ellipse 53" opacity="0.25" cx="349.5" cy="88.4999" r="35.5" fill="white"/>
</g>
</g>
<g id="Frame 399">
<path id="5789" d="M27.6303 195.229C26.6067 195.229 25.6864 195.033 24.8697 194.641C24.0584 194.243 23.4104 193.699 22.9258 193.007C22.4412 192.315 22.1825 191.526 22.1499 190.638H24.6001C24.66 191.357 24.9786 191.948 25.5558 192.411C26.1329 192.874 26.8245 193.105 27.6303 193.105C28.2728 193.105 28.8419 192.958 29.3374 192.664C29.8383 192.364 30.2304 191.953 30.5135 191.431C30.8021 190.908 30.9464 190.312 30.9464 189.642C30.9464 188.961 30.7994 188.354 30.5053 187.821C30.2113 187.287 29.8056 186.868 29.2884 186.563C28.7765 186.258 28.1884 186.103 27.5241 186.097C27.0178 186.097 26.5086 186.184 25.9968 186.359C25.485 186.533 25.0711 186.761 24.7553 187.045L22.4439 186.702L23.3832 178.273H32.5799V180.437H25.4822L24.9513 185.117H25.0494C25.3761 184.801 25.8089 184.537 26.348 184.325C26.8925 184.112 27.4751 184.006 28.0959 184.006C29.1141 184.006 30.0207 184.249 30.8157 184.733C31.6161 185.218 32.245 185.879 32.7024 186.718C33.1652 187.551 33.3939 188.509 33.3885 189.593C33.3939 190.676 33.1489 191.643 32.6534 192.492C32.1634 193.342 31.4827 194.012 30.6115 194.502C29.7457 194.986 28.752 195.229 27.6303 195.229ZM36.9353 195L44.2371 180.56V180.437H35.7918V178.273H46.8508V180.511L39.5734 195H36.9353ZM55.0061 195.229C53.8354 195.229 52.8009 195.027 51.9024 194.624C51.0094 194.221 50.3097 193.666 49.8034 192.958C49.297 192.25 49.0465 191.444 49.0519 190.54C49.0465 189.833 49.1908 189.182 49.4848 188.588C49.7843 187.989 50.19 187.491 50.7018 187.094C51.2136 186.691 51.7854 186.435 52.417 186.326V186.228C51.5839 186.026 50.9169 185.58 50.4159 184.888C49.915 184.197 49.6672 183.402 49.6727 182.503C49.6672 181.649 49.8932 180.886 50.3506 180.216C50.8134 179.541 51.4478 179.01 52.2536 178.624C53.0595 178.237 53.977 178.044 55.0061 178.044C56.0244 178.044 56.9337 178.24 57.7341 178.632C58.54 179.019 59.1743 179.549 59.6372 180.225C60.1 180.894 60.3341 181.654 60.3396 182.503C60.3341 183.402 60.0782 184.197 59.5718 184.888C59.0654 185.58 58.4066 186.026 57.5953 186.228V186.326C58.2214 186.435 58.785 186.691 59.286 187.094C59.7923 187.491 60.1953 187.989 60.4948 188.588C60.7997 189.182 60.9549 189.833 60.9603 190.54C60.9549 191.444 60.699 192.25 60.1926 192.958C59.6862 193.666 58.9838 194.221 58.0853 194.624C57.1923 195.027 56.1659 195.229 55.0061 195.229ZM55.0061 193.162C55.6977 193.162 56.2966 193.048 56.803 192.819C57.3094 192.585 57.7014 192.261 57.9791 191.847C58.2568 191.428 58.3984 190.938 58.4039 190.377C58.3984 189.794 58.2459 189.28 57.9465 188.833C57.6524 188.387 57.2522 188.036 56.7458 187.78C56.2394 187.524 55.6595 187.396 55.0061 187.396C54.3473 187.396 53.7619 187.524 53.2501 187.78C52.7383 188.036 52.3353 188.387 52.0413 188.833C51.7472 189.28 51.603 189.794 51.6084 190.377C51.603 190.938 51.7364 191.428 52.0086 191.847C52.2863 192.261 52.6811 192.585 53.1929 192.819C53.7048 193.048 54.3092 193.162 55.0061 193.162ZM55.0061 185.378C55.5615 185.378 56.0543 185.267 56.4845 185.044C56.9146 184.82 57.2522 184.51 57.4972 184.112C57.7477 183.715 57.8757 183.249 57.8811 182.716C57.8757 182.193 57.7504 181.736 57.5054 181.344C57.2658 180.952 56.931 180.649 56.5008 180.437C56.0706 180.219 55.5724 180.11 55.0061 180.11C54.4289 180.11 53.9226 180.219 53.4869 180.437C53.0568 180.649 52.7219 180.952 52.4823 181.344C52.2428 181.736 52.1257 182.193 52.1311 182.716C52.1257 183.249 52.2455 183.715 52.4905 184.112C52.7355 184.51 53.0731 184.82 53.5033 185.044C53.9389 185.267 54.4398 185.378 55.0061 185.378ZM69.4485 178.044C70.1945 178.049 70.9296 178.185 71.6538 178.452C72.378 178.719 73.0314 179.155 73.614 179.759C74.2021 180.364 74.6703 181.18 75.0188 182.209C75.3728 183.233 75.5524 184.507 75.5579 186.032C75.5579 187.497 75.4109 188.801 75.1168 189.944C74.8228 191.082 74.4008 192.043 73.8509 192.827C73.3063 193.611 72.6448 194.208 71.8661 194.616C71.0875 195.024 70.2108 195.229 69.2362 195.229C68.2397 195.229 67.3549 195.033 66.5817 194.641C65.8085 194.248 65.1796 193.707 64.695 193.015C64.2103 192.318 63.9081 191.518 63.7884 190.614H66.2795C66.4428 191.333 66.775 191.915 67.2759 192.362C67.7823 192.803 68.4357 193.023 69.2362 193.023C70.4613 193.023 71.4169 192.49 72.103 191.422C72.7891 190.35 73.1348 188.852 73.1403 186.93H73.0096C72.7264 187.399 72.3725 187.801 71.9478 188.139C71.5285 188.477 71.0575 188.738 70.5348 188.923C70.0121 189.108 69.454 189.201 68.8604 189.201C67.8967 189.201 67.02 188.964 66.2305 188.49C65.4409 188.017 64.812 187.366 64.3438 186.538C63.8755 185.711 63.6413 184.766 63.6413 183.704C63.6413 182.648 63.8809 181.689 64.3601 180.829C64.8447 179.969 65.5199 179.288 66.3857 178.787C67.2569 178.281 68.2778 178.033 69.4485 178.044ZM69.4567 180.167C68.8196 180.167 68.2451 180.325 67.7333 180.641C67.2269 180.952 66.8267 181.374 66.5327 181.907C66.2386 182.435 66.0916 183.023 66.0916 183.671C66.0916 184.319 66.2332 184.907 66.5163 185.436C66.8049 185.958 67.197 186.375 67.6925 186.685C68.1934 186.99 68.7652 187.143 69.4077 187.143C69.8868 187.143 70.3333 187.05 70.7472 186.865C71.161 186.68 71.5231 186.424 71.8335 186.097C72.1438 185.765 72.3861 185.389 72.5604 184.97C72.7346 184.551 72.8217 184.11 72.8217 183.647C72.8217 183.032 72.6747 182.46 72.3807 181.932C72.0921 181.404 71.6946 180.979 71.1882 180.658C70.6818 180.331 70.1046 180.167 69.4567 180.167Z" fill="white"/>
<path id="* * * *" d="M110.613 187.682L110.768 184.235L107.86 186.105L106.97 184.554L110.058 182.977L106.97 181.401L107.86 179.849L110.768 181.719L110.613 178.273H112.385L112.23 181.719L115.138 179.849L116.028 181.401L112.941 182.977L116.028 184.554L115.138 186.105L112.23 184.235L112.385 187.682H110.613ZM128.694 187.682L128.849 184.235L125.941 186.105L125.051 184.554L128.139 182.977L125.051 181.401L125.941 179.849L128.849 181.719L128.694 178.273H130.466L130.311 181.719L133.219 179.849L134.109 181.401L131.022 182.977L134.109 184.554L133.219 186.105L130.311 184.235L130.466 187.682H128.694ZM146.775 187.682L146.93 184.235L144.023 186.105L143.132 184.554L146.22 182.977L143.132 181.401L144.023 179.849L146.93 181.719L146.775 178.273H148.547L148.392 181.719L151.3 179.849L152.19 181.401L149.103 182.977L152.19 184.554L151.3 186.105L148.392 184.235L148.547 187.682H146.775ZM164.856 187.682L165.011 184.235L162.104 186.105L161.213 184.554L164.301 182.977L161.213 181.401L162.104 179.849L165.011 181.719L164.856 178.273H166.628L166.473 181.719L169.381 179.849L170.271 181.401L167.184 182.977L170.271 184.554L169.381 186.105L166.473 184.235L166.628 187.682H164.856Z" fill="white"/>
<path id="* * * *_2" d="M205.613 187.682L205.768 184.235L202.86 186.105L201.97 184.554L205.058 182.977L201.97 181.401L202.86 179.849L205.768 181.719L205.613 178.273H207.385L207.23 181.719L210.138 179.849L211.028 181.401L207.941 182.977L211.028 184.554L210.138 186.105L207.23 184.235L207.385 187.682H205.613ZM223.694 187.682L223.849 184.235L220.941 186.105L220.051 184.554L223.139 182.977L220.051 181.401L220.941 179.849L223.849 181.719L223.694 178.273H225.466L225.311 181.719L228.219 179.849L229.109 181.401L226.022 182.977L229.109 184.554L228.219 186.105L225.311 184.235L225.466 187.682H223.694ZM241.775 187.682L241.93 184.235L239.023 186.105L238.132 184.554L241.22 182.977L238.132 181.401L239.023 179.849L241.93 181.719L241.775 178.273H243.547L243.392 181.719L246.3 179.849L247.19 181.401L244.103 182.977L247.19 184.554L246.3 186.105L243.392 184.235L243.547 187.682H241.775ZM259.856 187.682L260.011 184.235L257.104 186.105L256.213 184.554L259.301 182.977L256.213 181.401L257.104 179.849L260.011 181.719L259.856 178.273H261.628L261.473 181.719L264.381 179.849L265.271 181.401L262.184 182.977L265.271 184.554L264.381 186.105L261.473 184.235L261.628 187.682H259.856Z" fill="white"/>
<path id="2847" d="M297.109 195V193.17L302.769 187.306C303.374 186.669 303.872 186.111 304.264 185.632C304.661 185.147 304.958 184.687 305.154 184.251C305.35 183.816 305.448 183.353 305.448 182.863C305.448 182.307 305.317 181.828 305.056 181.425C304.795 181.017 304.438 180.704 303.986 180.486C303.534 180.263 303.025 180.151 302.459 180.151C301.86 180.151 301.337 180.274 300.891 180.519C300.444 180.764 300.101 181.109 299.862 181.556C299.622 182.002 299.502 182.525 299.502 183.124H297.093C297.093 182.106 297.327 181.216 297.795 180.453C298.263 179.691 298.906 179.1 299.723 178.681C300.539 178.256 301.468 178.044 302.508 178.044C303.559 178.044 304.484 178.254 305.285 178.673C306.091 179.087 306.72 179.653 307.172 180.372C307.623 181.085 307.849 181.891 307.849 182.789C307.849 183.41 307.732 184.017 307.498 184.611C307.27 185.204 306.869 185.866 306.298 186.595C305.726 187.32 304.931 188.199 303.913 189.234L300.588 192.713V192.835H308.119V195H297.109ZM316.866 195.229C315.696 195.229 314.661 195.027 313.763 194.624C312.87 194.221 312.17 193.666 311.664 192.958C311.157 192.25 310.907 191.444 310.912 190.54C310.907 189.833 311.051 189.182 311.345 188.588C311.645 187.989 312.05 187.491 312.562 187.094C313.074 186.691 313.646 186.435 314.277 186.326V186.228C313.444 186.026 312.777 185.58 312.276 184.888C311.775 184.197 311.528 183.402 311.533 182.503C311.528 181.649 311.754 180.886 312.211 180.216C312.674 179.541 313.308 179.01 314.114 178.624C314.92 178.237 315.837 178.044 316.866 178.044C317.885 178.044 318.794 178.24 319.594 178.632C320.4 179.019 321.035 179.549 321.498 180.225C321.96 180.894 322.194 181.654 322.2 182.503C322.194 183.402 321.939 184.197 321.432 184.888C320.926 185.58 320.267 186.026 319.456 186.228V186.326C320.082 186.435 320.645 186.691 321.146 187.094C321.653 187.491 322.056 187.989 322.355 188.588C322.66 189.182 322.815 189.833 322.821 190.54C322.815 191.444 322.559 192.25 322.053 192.958C321.547 193.666 320.844 194.221 319.946 194.624C319.053 195.027 318.026 195.229 316.866 195.229ZM316.866 193.162C317.558 193.162 318.157 193.048 318.663 192.819C319.17 192.585 319.562 192.261 319.839 191.847C320.117 191.428 320.259 190.938 320.264 190.377C320.259 189.794 320.106 189.28 319.807 188.833C319.513 188.387 319.113 188.036 318.606 187.78C318.1 187.524 317.52 187.396 316.866 187.396C316.208 187.396 315.622 187.524 315.11 187.78C314.599 188.036 314.196 188.387 313.902 188.833C313.608 189.28 313.463 189.794 313.469 190.377C313.463 190.938 313.597 191.428 313.869 191.847C314.147 192.261 314.541 192.585 315.053 192.819C315.565 193.048 316.17 193.162 316.866 193.162ZM316.866 185.378C317.422 185.378 317.915 185.267 318.345 185.044C318.775 184.82 319.113 184.51 319.358 184.112C319.608 183.715 319.736 183.249 319.741 182.716C319.736 182.193 319.611 181.736 319.366 181.344C319.126 180.952 318.791 180.649 318.361 180.437C317.931 180.219 317.433 180.11 316.866 180.11C316.289 180.11 315.783 180.219 315.347 180.437C314.917 180.649 314.582 180.952 314.343 181.344C314.103 181.736 313.986 182.193 313.991 182.716C313.986 183.249 314.106 183.715 314.351 184.112C314.596 184.51 314.933 184.82 315.364 185.044C315.799 185.267 316.3 185.378 316.866 185.378ZM325.396 191.733V189.691L332.624 178.273H334.233V181.278H333.212L328.042 189.462V189.593H337.949V191.733H325.396ZM333.326 195V191.112L333.343 190.181V178.273H335.736V195H333.326ZM341.359 195L348.661 180.56V180.437H340.216V178.273H351.275V180.511L343.997 195H341.359Z" fill="white"/>
</g>
</g>
</g>
<rect x="17" y="29.9999" width="340" height="219" rx="23" stroke="white" stroke-width="2"/>
</g>
</g>
</g>
</g>
<defs>
<filter id="filter0_b_47_4698" x="-48" y="-35.0001" width="470" height="349" filterUnits="userSpaceOnUse" color-interpolation-filters="sRGB">
<feFlood flood-opacity="0" result="BackgroundImageFix"/>
<feGaussianBlur in="BackgroundImageFix" stdDeviation="32"/>
<feComposite in2="SourceAlpha" operator="in" result="effect1_backgroundBlur_47_4698"/>
<feBlend mode="normal" in="SourceGraphic" in2="effect1_backgroundBlur_47_4698" result="shape"/>
</filter>
<radialGradient id="paint0_radial_47_4698" cx="0" cy="0" r="1" gradientUnits="userSpaceOnUse" gradientTransform="translate(-251 -161.872) rotate(47.0947) scale(407.992)">
<stop stop-color="#08328C"/>
<stop offset="1" stop-color="#1964D3"/>
</radialGradient>
<radialGradient id="paint1_radial_47_4698" cx="0" cy="0" r="1" gradientUnits="userSpaceOnUse" gradientTransform="translate(509.386 368.975) rotate(-136.667) scale(466.234)">
<stop stop-color="#FDB833"/>
<stop offset="1" stop-color="#FDB833"/>
</radialGradient>
<clipPath id="clip0_47_4698">
<path d="M369 276H0V5C0 2.23859 2.23859 0 5 0H364C366.761 0 369 2.23859 369 5V276Z" fill="white"/>
</clipPath>
<clipPath id="clip1_47_4698">
<rect x="16" y="28.9999" width="342" height="221" rx="24" fill="white"/>
</clipPath>
</defs>
</svg>
