<svg width="257" height="76" xmlns="http://www.w3.org/2000/svg" fill="none">

 <g>
  <title>Layer 1</title>
  <rect id="svg_1" fill="#3A57E8" transform="rotate(-45 30.2427 46.2428)" rx="2" height="4" width="28" y="46.2428" x="30.2427"/>
  <rect id="svg_2" fill="#3A57E8" transform="rotate(-45 38.728 54.728)" rx="2" height="4" width="28" y="54.728" x="38.728"/>
  <rect id="svg_3" fill="#3A57E8" transform="rotate(45 41.5366 43.3945)" rx="2" height="4" width="16" y="43.3945" x="41.5366"/>
  <rect id="svg_4" fill="#3A57E8" transform="rotate(45 41.5562 26.4437)" rx="2" height="4" width="28" y="26.4437" x="41.5562"/>
  <path id="svg_5" fill="#ffffff" d="m72.6641,54.5l-3.8438,0l8.6367,-24l4.1836,0l8.6367,24l-3.8437,0l-6.7852,-19.6406l-0.1875,0l-6.7968,19.6406zm0.6445,-9.3984l12.4687,0l0,3.0468l-12.4687,0l0,-3.0468zm33.5124,-4.2071l-3.175,0.5625c-0.133,-0.4062 -0.344,-0.7929 -0.633,-1.1601c-0.282,-0.3672 -0.664,-0.668 -1.149,-0.9024c-0.484,-0.2343 -1.09,-0.3515 -1.816,-0.3515c-0.9923,0 -1.8205,0.2226 -2.4845,0.6679c-0.6641,0.4375 -0.9961,1.0039 -0.9961,1.6993c0,0.6015 0.2226,1.0859 0.668,1.4531c0.4453,0.3672 1.164,0.6679 2.1562,0.9023l2.8594,0.6563c1.656,0.3828 2.891,0.9726 3.703,1.7695c0.813,0.7969 1.219,1.832 1.219,3.1055c0,1.0781 -0.313,2.039 -0.938,2.8828c-0.617,0.8359 -1.48,1.4922 -2.589,1.9687c-1.102,0.4766 -2.379,0.7149 -3.8325,0.7149c-2.0156,0 -3.6602,-0.4297 -4.9336,-1.2891c-1.2735,-0.8672 -2.0547,-2.0976 -2.3438,-3.6914l3.3868,-0.5156c0.2109,0.8828 0.6445,1.5508 1.3007,2.0039c0.6563,0.4453 1.5118,0.668 2.5664,0.668c1.148,0 2.066,-0.2383 2.754,-0.7149c0.687,-0.4844 1.031,-1.0742 1.031,-1.7695c0,-0.5625 -0.211,-1.0352 -0.633,-1.418c-0.414,-0.3828 -1.05,-0.6719 -1.91,-0.8672l-3.0466,-0.6679c-1.6797,-0.3828 -2.9219,-0.9922 -3.7266,-1.8282c-0.7969,-0.8359 -1.1953,-1.8945 -1.1953,-3.1757c0,-1.0625 0.2969,-1.9922 0.8906,-2.7891c0.5938,-0.7969 1.4141,-1.418 2.4609,-1.8633c1.0469,-0.4531 2.2461,-0.6797 3.598,-0.6797c1.945,0 3.476,0.4219 4.593,1.2656c1.118,0.836 1.856,1.9571 2.215,3.3633zm12.607,-4.3945l0,2.8125l-9.832,0l0,-2.8125l9.832,0zm-7.196,-4.3125l3.504,0l0,17.0273c0,0.6797 0.102,1.1914 0.305,1.5352c0.203,0.3359 0.465,0.5664 0.785,0.6914c0.328,0.1172 0.684,0.1758 1.067,0.1758c0.281,0 0.527,-0.0195 0.738,-0.0586c0.211,-0.0391 0.375,-0.0703 0.492,-0.0938l0.633,2.8946c-0.203,0.0781 -0.492,0.1562 -0.867,0.2344c-0.375,0.0859 -0.844,0.1328 -1.407,0.1406c-0.921,0.0156 -1.781,-0.1485 -2.578,-0.4922c-0.797,-0.3438 -1.441,-0.875 -1.933,-1.5938c-0.492,-0.7187 -0.739,-1.6211 -0.739,-2.707l0,-17.7539zm11.072,22.3125l0,-18l3.386,0l0,2.8594l0.188,0c0.328,-0.9688 0.906,-1.7305 1.734,-2.2852c0.836,-0.5625 1.782,-0.8437 2.836,-0.8437c0.219,0 0.477,0.0078 0.774,0.0234c0.304,0.0156 0.543,0.0352 0.715,0.0586l0,3.3516c-0.141,-0.0391 -0.391,-0.0821 -0.75,-0.1289c-0.36,-0.0547 -0.719,-0.0821 -1.079,-0.0821c-0.828,0 -1.566,0.1758 -2.214,0.5274c-0.641,0.3437 -1.149,0.8242 -1.524,1.4414c-0.375,0.6093 -0.562,1.3047 -0.562,2.0859l0,10.9922l-3.504,0zm19.602,0.3633c-1.687,0 -3.16,-0.3867 -4.418,-1.1602c-1.258,-0.7734 -2.234,-1.8554 -2.929,-3.2461c-0.696,-1.3906 -1.043,-3.0156 -1.043,-4.875c0,-1.8672 0.347,-3.5 1.043,-4.8984c0.695,-1.3984 1.671,-2.4844 2.929,-3.2578c1.258,-0.7735 2.731,-1.1602 4.418,-1.1602c1.688,0 3.16,0.3867 4.418,1.1602c1.258,0.7734 2.235,1.8594 2.93,3.2578c0.695,1.3984 1.043,3.0312 1.043,4.8984c0,1.8594 -0.348,3.4844 -1.043,4.875c-0.695,1.3907 -1.672,2.4727 -2.93,3.2461c-1.258,0.7735 -2.73,1.1602 -4.418,1.1602zm0.012,-2.9414c1.094,0 2,-0.2891 2.719,-0.8672c0.718,-0.5781 1.25,-1.3477 1.593,-2.3086c0.352,-0.9609 0.528,-2.0195 0.528,-3.1758c0,-1.1484 -0.176,-2.2031 -0.528,-3.1641c-0.343,-0.9687 -0.875,-1.746 -1.593,-2.332c-0.719,-0.5859 -1.625,-0.8789 -2.719,-0.8789c-1.102,0 -2.016,0.293 -2.742,0.8789c-0.719,0.586 -1.254,1.3633 -1.606,2.332c-0.343,0.961 -0.515,2.0157 -0.515,3.1641c0,1.1563 0.172,2.2149 0.515,3.1758c0.352,0.9609 0.887,1.7305 1.606,2.3086c0.726,0.5781 1.64,0.8672 2.742,0.8672zm25.661,-15.1172c-0.125,-1.1094 -0.641,-1.9688 -1.547,-2.5781c-0.906,-0.6172 -2.047,-0.9258 -3.422,-0.9258c-0.984,0 -1.836,0.1562 -2.554,0.4687c-0.719,0.3047 -1.278,0.7266 -1.676,1.2657c-0.391,0.5312 -0.586,1.1367 -0.586,1.8164c0,0.5703 0.133,1.0625 0.398,1.4765c0.274,0.4141 0.629,0.7617 1.067,1.043c0.445,0.2734 0.922,0.5039 1.429,0.6914c0.508,0.1797 0.997,0.3281 1.465,0.4453l2.344,0.6094c0.766,0.1875 1.551,0.4414 2.356,0.7617c0.804,0.3203 1.55,0.7422 2.238,1.2656c0.687,0.5235 1.242,1.1719 1.664,1.9453c0.43,0.7735 0.644,1.6993 0.644,2.7774c0,1.3594 -0.351,2.5664 -1.054,3.6211c-0.696,1.0547 -1.707,1.8867 -3.035,2.4961c-1.321,0.6094 -2.918,0.914 -4.793,0.914c-1.797,0 -3.352,-0.2851 -4.664,-0.8554c-1.313,-0.5703 -2.34,-1.3789 -3.082,-2.4258c-0.743,-1.0547 -1.153,-2.3047 -1.231,-3.75l3.633,0c0.07,0.8672 0.351,1.5898 0.844,2.168c0.5,0.5703 1.136,0.996 1.91,1.2773c0.781,0.2734 1.636,0.4102 2.566,0.4102c1.024,0 1.934,-0.1602 2.731,-0.4805c0.804,-0.3281 1.437,-0.7813 1.898,-1.3594c0.461,-0.5859 0.691,-1.2695 0.691,-2.0508c0,-0.7109 -0.203,-1.2929 -0.609,-1.7461c-0.398,-0.4531 -0.941,-0.8281 -1.629,-1.125c-0.679,-0.2968 -1.449,-0.5586 -2.308,-0.7851l-2.836,-0.7735c-1.922,-0.5234 -3.446,-1.2929 -4.571,-2.3085c-1.117,-1.0157 -1.675,-2.3594 -1.675,-4.0313c0,-1.3828 0.375,-2.5898 1.125,-3.6211c0.75,-1.0312 1.765,-1.832 3.046,-2.4023c1.282,-0.5782 2.727,-0.8672 4.336,-0.8672c1.625,0 3.059,0.2851 4.301,0.8554c1.25,0.5704 2.235,1.3555 2.953,2.3555c0.719,0.9922 1.094,2.1328 1.125,3.4219l-3.492,0zm11.37,7.0078l0,10.6875l-3.504,0l0,-24l3.457,0l0,8.9297l0.223,0c0.422,-0.9688 1.066,-1.7383 1.934,-2.3086c0.867,-0.5703 2,-0.8555 3.398,-0.8555c1.234,0 2.313,0.2539 3.234,0.7617c0.93,0.5079 1.649,1.2657 2.157,2.2735c0.515,1 0.773,2.25 0.773,3.75l0,11.4492l-3.504,0l0,-11.0273c0,-1.3204 -0.34,-2.3438 -1.019,-3.0704c-0.68,-0.7343 -1.625,-1.1015 -2.836,-1.1015c-0.828,0 -1.571,0.1758 -2.227,0.5273c-0.648,0.3516 -1.16,0.8672 -1.535,1.5469c-0.367,0.6719 -0.551,1.4844 -0.551,2.4375zm24.106,11.0508c-1.774,0 -3.301,-0.3789 -4.582,-1.1367c-1.274,-0.7657 -2.258,-1.8399 -2.953,-3.2227c-0.688,-1.3906 -1.032,-3.0195 -1.032,-4.8867c0,-1.8438 0.344,-3.4688 1.032,-4.875c0.695,-1.4063 1.664,-2.5039 2.906,-3.293c1.25,-0.789 2.711,-1.1836 4.383,-1.1836c1.015,0 2,0.168 2.953,0.5039c0.953,0.336 1.808,0.8633 2.566,1.5821c0.758,0.7187 1.356,1.6523 1.793,2.8007c0.438,1.1407 0.656,2.5274 0.656,4.1602l0,1.2422l-14.308,0l0,-2.625l10.875,0c0,-0.9219 -0.188,-1.7383 -0.563,-2.4492c-0.375,-0.7188 -0.902,-1.2852 -1.582,-1.6993c-0.672,-0.414 -1.461,-0.621 -2.367,-0.621c-0.984,0 -1.844,0.2421 -2.578,0.7265c-0.727,0.4766 -1.289,1.1016 -1.688,1.875c-0.39,0.7656 -0.586,1.5977 -0.586,2.4961l0,2.0508c0,1.2031 0.211,2.2266 0.633,3.0703c0.43,0.8438 1.028,1.4883 1.793,1.9336c0.766,0.4375 1.66,0.6562 2.684,0.6562c0.664,0 1.269,-0.0937 1.816,-0.2812c0.547,-0.1953 1.02,-0.4844 1.418,-0.8672c0.399,-0.3828 0.703,-0.8555 0.914,-1.418l3.317,0.5977c-0.266,0.9766 -0.742,1.832 -1.43,2.5664c-0.68,0.7266 -1.535,1.293 -2.566,1.6992c-1.024,0.3985 -2.192,0.5977 -3.504,0.5977z"/>
 </g>
</svg>