<svg width="257" height="76" viewBox="0 0 257 76" fill="none" xmlns="http://www.w3.org/2000/svg">
<rect x="30.2427" y="46.2428" width="28" height="4" rx="2" transform="rotate(-45 30.2427 46.2428)" fill="#FCFDFF"/>
<rect x="38.728" y="54.728" width="28" height="4" rx="2" transform="rotate(-45 38.728 54.728)" fill="#FCFDFF"/>
<rect x="41.5366" y="43.3945" width="16" height="4" rx="2" transform="rotate(45 41.5366 43.3945)" fill="#FCFDFF"/>
<rect x="41.5562" y="26.4437" width="28" height="4" rx="2" transform="rotate(45 41.5562 26.4437)" fill="#FCFDFF"/>
<path d="M72.6641 54.5H68.8203L77.457 30.5H81.6406L90.2773 54.5H86.4336L79.6484 34.8594H79.4609L72.6641 54.5ZM73.3086 45.1016H85.7773V48.1484H73.3086V45.1016ZM106.821 40.8945L103.646 41.457C103.513 41.0508 103.302 40.6641 103.013 40.2969C102.731 39.9297 102.349 39.6289 101.864 39.3945C101.38 39.1602 100.774 39.043 100.048 39.043C99.0557 39.043 98.2275 39.2656 97.5635 39.7109C96.8994 40.1484 96.5674 40.7148 96.5674 41.4102C96.5674 42.0117 96.79 42.4961 97.2354 42.8633C97.6807 43.2305 98.3994 43.5312 99.3916 43.7656L102.251 44.4219C103.907 44.8047 105.142 45.3945 105.954 46.1914C106.767 46.9883 107.173 48.0234 107.173 49.2969C107.173 50.375 106.86 51.3359 106.235 52.1797C105.618 53.0156 104.755 53.6719 103.646 54.1484C102.544 54.625 101.267 54.8633 99.8135 54.8633C97.7979 54.8633 96.1533 54.4336 94.8799 53.5742C93.6064 52.707 92.8252 51.4766 92.5361 49.8828L95.9229 49.3672C96.1338 50.25 96.5674 50.918 97.2236 51.3711C97.8799 51.8164 98.7354 52.0391 99.79 52.0391C100.938 52.0391 101.856 51.8008 102.544 51.3242C103.231 50.8398 103.575 50.25 103.575 49.5547C103.575 48.9922 103.364 48.5195 102.942 48.1367C102.528 47.7539 101.892 47.4648 101.032 47.2695L97.9854 46.6016C96.3057 46.2188 95.0635 45.6094 94.2588 44.7734C93.4619 43.9375 93.0635 42.8789 93.0635 41.5977C93.0635 40.5352 93.3604 39.6055 93.9541 38.8086C94.5479 38.0117 95.3682 37.3906 96.415 36.9453C97.4619 36.4922 98.6611 36.2656 100.013 36.2656C101.958 36.2656 103.489 36.6875 104.606 37.5312C105.724 38.3672 106.462 39.4883 106.821 40.8945ZM119.428 36.5V39.3125H109.596V36.5H119.428ZM112.232 32.1875H115.736V49.2148C115.736 49.8945 115.838 50.4062 116.041 50.75C116.244 51.0859 116.506 51.3164 116.826 51.4414C117.154 51.5586 117.51 51.6172 117.893 51.6172C118.174 51.6172 118.42 51.5977 118.631 51.5586C118.842 51.5195 119.006 51.4883 119.123 51.4648L119.756 54.3594C119.553 54.4375 119.264 54.5156 118.889 54.5938C118.514 54.6797 118.045 54.7266 117.482 54.7344C116.561 54.75 115.701 54.5859 114.904 54.2422C114.107 53.8984 113.463 53.3672 112.971 52.6484C112.479 51.9297 112.232 51.0273 112.232 49.9414V32.1875ZM123.304 54.5V36.5H126.69V39.3594H126.878C127.206 38.3906 127.784 37.6289 128.612 37.0742C129.448 36.5117 130.394 36.2305 131.448 36.2305C131.667 36.2305 131.925 36.2383 132.222 36.2539C132.526 36.2695 132.765 36.2891 132.937 36.3125V39.6641C132.796 39.625 132.546 39.582 132.187 39.5352C131.827 39.4805 131.468 39.4531 131.108 39.4531C130.28 39.4531 129.542 39.6289 128.894 39.9805C128.253 40.3242 127.745 40.8047 127.37 41.4219C126.995 42.0312 126.808 42.7266 126.808 43.5078V54.5H123.304ZM142.906 54.8633C141.219 54.8633 139.746 54.4766 138.488 53.7031C137.23 52.9297 136.254 51.8477 135.559 50.457C134.863 49.0664 134.516 47.4414 134.516 45.582C134.516 43.7148 134.863 42.082 135.559 40.6836C136.254 39.2852 137.23 38.1992 138.488 37.4258C139.746 36.6523 141.219 36.2656 142.906 36.2656C144.594 36.2656 146.066 36.6523 147.324 37.4258C148.582 38.1992 149.559 39.2852 150.254 40.6836C150.949 42.082 151.297 43.7148 151.297 45.582C151.297 47.4414 150.949 49.0664 150.254 50.457C149.559 51.8477 148.582 52.9297 147.324 53.7031C146.066 54.4766 144.594 54.8633 142.906 54.8633ZM142.918 51.9219C144.012 51.9219 144.918 51.6328 145.637 51.0547C146.355 50.4766 146.887 49.707 147.23 48.7461C147.582 47.7852 147.758 46.7266 147.758 45.5703C147.758 44.4219 147.582 43.3672 147.23 42.4062C146.887 41.4375 146.355 40.6602 145.637 40.0742C144.918 39.4883 144.012 39.1953 142.918 39.1953C141.816 39.1953 140.902 39.4883 140.176 40.0742C139.457 40.6602 138.922 41.4375 138.57 42.4062C138.227 43.3672 138.055 44.4219 138.055 45.5703C138.055 46.7266 138.227 47.7852 138.57 48.7461C138.922 49.707 139.457 50.4766 140.176 51.0547C140.902 51.6328 141.816 51.9219 142.918 51.9219ZM168.579 36.8047C168.454 35.6953 167.938 34.8359 167.032 34.2266C166.126 33.6094 164.985 33.3008 163.61 33.3008C162.626 33.3008 161.774 33.457 161.056 33.7695C160.337 34.0742 159.778 34.4961 159.38 35.0352C158.989 35.5664 158.794 36.1719 158.794 36.8516C158.794 37.4219 158.927 37.9141 159.192 38.3281C159.466 38.7422 159.821 39.0898 160.259 39.3711C160.704 39.6445 161.181 39.875 161.688 40.0625C162.196 40.2422 162.685 40.3906 163.153 40.5078L165.497 41.1172C166.263 41.3047 167.048 41.5586 167.853 41.8789C168.657 42.1992 169.403 42.6211 170.091 43.1445C170.778 43.668 171.333 44.3164 171.755 45.0898C172.185 45.8633 172.399 46.7891 172.399 47.8672C172.399 49.2266 172.048 50.4336 171.345 51.4883C170.649 52.543 169.638 53.375 168.31 53.9844C166.989 54.5938 165.392 54.8984 163.517 54.8984C161.72 54.8984 160.165 54.6133 158.853 54.043C157.54 53.4727 156.513 52.6641 155.771 51.6172C155.028 50.5625 154.618 49.3125 154.54 47.8672H158.173C158.243 48.7344 158.524 49.457 159.017 50.0352C159.517 50.6055 160.153 51.0312 160.927 51.3125C161.708 51.5859 162.563 51.7227 163.493 51.7227C164.517 51.7227 165.427 51.5625 166.224 51.2422C167.028 50.9141 167.661 50.4609 168.122 49.8828C168.583 49.2969 168.813 48.6133 168.813 47.832C168.813 47.1211 168.61 46.5391 168.204 46.0859C167.806 45.6328 167.263 45.2578 166.575 44.9609C165.896 44.6641 165.126 44.4023 164.267 44.1758L161.431 43.4023C159.509 42.8789 157.985 42.1094 156.86 41.0938C155.743 40.0781 155.185 38.7344 155.185 37.0625C155.185 35.6797 155.56 34.4727 156.31 33.4414C157.06 32.4102 158.075 31.6094 159.356 31.0391C160.638 30.4609 162.083 30.1719 163.692 30.1719C165.317 30.1719 166.751 30.457 167.993 31.0273C169.243 31.5977 170.228 32.3828 170.946 33.3828C171.665 34.375 172.04 35.5156 172.071 36.8047H168.579ZM179.949 43.8125V54.5H176.445V30.5H179.902V39.4297H180.125C180.547 38.4609 181.191 37.6914 182.059 37.1211C182.926 36.5508 184.059 36.2656 185.457 36.2656C186.691 36.2656 187.77 36.5195 188.691 37.0273C189.621 37.5352 190.34 38.293 190.848 39.3008C191.363 40.3008 191.621 41.5508 191.621 43.0508V54.5H188.117V43.4727C188.117 42.1523 187.777 41.1289 187.098 40.4023C186.418 39.668 185.473 39.3008 184.262 39.3008C183.434 39.3008 182.691 39.4766 182.035 39.8281C181.387 40.1797 180.875 40.6953 180.5 41.375C180.133 42.0469 179.949 42.8594 179.949 43.8125ZM204.055 54.8633C202.281 54.8633 200.754 54.4844 199.473 53.7266C198.199 52.9609 197.215 51.8867 196.52 50.5039C195.832 49.1133 195.488 47.4844 195.488 45.6172C195.488 43.7734 195.832 42.1484 196.52 40.7422C197.215 39.3359 198.184 38.2383 199.426 37.4492C200.676 36.6602 202.137 36.2656 203.809 36.2656C204.824 36.2656 205.809 36.4336 206.762 36.7695C207.715 37.1055 208.57 37.6328 209.328 38.3516C210.086 39.0703 210.684 40.0039 211.121 41.1523C211.559 42.293 211.777 43.6797 211.777 45.3125V46.5547H197.469V43.9297H208.344C208.344 43.0078 208.156 42.1914 207.781 41.4805C207.406 40.7617 206.879 40.1953 206.199 39.7812C205.527 39.3672 204.738 39.1602 203.832 39.1602C202.848 39.1602 201.988 39.4023 201.254 39.8867C200.527 40.3633 199.965 40.9883 199.566 41.7617C199.176 42.5273 198.98 43.3594 198.98 44.2578V46.3086C198.98 47.5117 199.191 48.5352 199.613 49.3789C200.043 50.2227 200.641 50.8672 201.406 51.3125C202.172 51.75 203.066 51.9687 204.09 51.9687C204.754 51.9687 205.359 51.875 205.906 51.6875C206.453 51.4922 206.926 51.2031 207.324 50.8203C207.723 50.4375 208.027 49.9648 208.238 49.4023L211.555 50C211.289 50.9766 210.813 51.832 210.125 52.5664C209.445 53.293 208.59 53.8594 207.559 54.2656C206.535 54.6641 205.367 54.8633 204.055 54.8633Z" fill="white"/>
</svg>
