<svg width="170" height="290" viewBox="0 0 170 290" fill="none" xmlns="http://www.w3.org/2000/svg">
<circle cx="4.12556" cy="4.12556" r="4.12556" fill="#7594FB"/>
<circle cx="44.3765" cy="4.12556" r="4.12556" fill="#7594FB"/>
<circle cx="84.6275" cy="4.12556" r="4.12556" fill="#7594FB"/>
<circle cx="124.878" cy="4.12556" r="4.12556" fill="#7594FB"/>
<circle cx="165.129" cy="4.12556" r="4.12556" fill="#7594FB"/>
<circle cx="4.12556" cy="44.3768" r="4.12556" fill="#7594FB"/>
<circle cx="44.3765" cy="44.3765" r="4.12556" fill="#7594FB"/>
<circle cx="84.6275" cy="44.3765" r="4.12556" fill="#7594FB"/>
<circle cx="124.878" cy="44.3765" r="4.12556" fill="#7594FB"/>
<circle cx="165.129" cy="44.3765" r="4.12556" fill="#7594FB"/>
<circle cx="4.12556" cy="84.628" r="4.12556" fill="#7594FB"/>
<circle cx="44.3765" cy="84.6278" r="4.12556" fill="#7594FB"/>
<circle cx="84.6275" cy="84.6278" r="4.12556" fill="#7594FB"/>
<circle cx="124.878" cy="84.6278" r="4.12556" fill="#7594FB"/>
<circle cx="165.129" cy="84.6278" r="4.12556" fill="#7594FB"/>
<circle cx="4.12556" cy="124.879" r="4.12556" fill="#7594FB"/>
<circle cx="44.3765" cy="124.879" r="4.12556" fill="#7594FB"/>
<circle cx="84.6275" cy="124.879" r="4.12556" fill="#7594FB"/>
<circle cx="124.878" cy="124.879" r="4.12556" fill="#7594FB"/>
<circle cx="165.129" cy="124.879" r="4.12556" fill="#7594FB"/>
<circle cx="4.12556" cy="165.13" r="4.12556" fill="#7594FB"/>
<circle cx="44.3765" cy="165.13" r="4.12556" fill="#7594FB"/>
<circle cx="84.6275" cy="165.13" r="4.12556" fill="#7594FB"/>
<circle cx="124.878" cy="165.13" r="4.12556" fill="#7594FB"/>
<circle cx="165.129" cy="165.13" r="4.12556" fill="#7594FB"/>
<circle cx="4.12556" cy="205.381" r="4.12556" fill="#7594FB"/>
<circle cx="44.3765" cy="205.381" r="4.12556" fill="#7594FB"/>
<circle cx="84.6275" cy="205.381" r="4.12556" fill="#7594FB"/>
<circle cx="124.878" cy="205.381" r="4.12556" fill="#7594FB"/>
<circle cx="165.129" cy="205.381" r="4.12556" fill="#7594FB"/>
<circle cx="4.12556" cy="245.632" r="4.12556" fill="#7594FB"/>
<circle cx="44.3765" cy="245.632" r="4.12556" fill="#7594FB"/>
<circle cx="84.6275" cy="245.632" r="4.12556" fill="#7594FB"/>
<circle cx="124.878" cy="245.632" r="4.12556" fill="#7594FB"/>
<circle cx="165.129" cy="245.632" r="4.12556" fill="#7594FB"/>
<circle cx="4.12556" cy="285.883" r="4.12556" fill="#7594FB"/>
<circle cx="44.3765" cy="285.883" r="4.12556" fill="#7594FB"/>
<circle cx="84.6275" cy="285.883" r="4.12556" fill="#7594FB"/>
<circle cx="124.878" cy="285.883" r="4.12556" fill="#7594FB"/>
<circle cx="165.129" cy="285.883" r="4.12556" fill="#7594FB"/>
</svg>
