<svg width="80" height="80" viewBox="0 0 80 80" fill="none" xmlns="http://www.w3.org/2000/svg">
<rect width="80" height="80" rx="26" fill="#00BA8B" fill-opacity="0.08"/>
<path fill-rule="evenodd" clip-rule="evenodd" d="M39.7352 45.6327L39.9987 45.6328L40.588 45.6348C45.0927 45.6645 55.3872 46.1195 55.3872 53.097C55.3872 60.0288 45.4516 60.4808 40.6582 60.5103L38.8823 60.5103C34.3774 60.4807 24.0809 60.0262 24.0809 53.0574C24.0809 46.1169 34.3774 45.6643 38.8823 45.6348L39.4717 45.6328C39.5632 45.6327 39.651 45.6327 39.7352 45.6327ZM39.7352 49.1327C34.1912 49.1327 27.5809 49.814 27.5809 53.0574C27.5809 56.2273 33.7966 56.9684 39.2285 57.0104L39.7352 57.0124C45.2792 57.0124 51.8872 56.3334 51.8872 53.097C51.8872 49.821 45.2792 49.1327 39.7352 49.1327ZM58.2936 44.6858C63.9473 45.5328 65.1349 48.1882 65.1349 50.2672C65.1349 51.5365 64.6356 53.8535 61.2989 55.1252C61.0936 55.2022 60.8836 55.2395 60.6759 55.2395C59.9713 55.2395 59.3063 54.8102 59.0403 54.1125C58.6949 53.2095 59.1499 52.1968 60.0529 51.8538C61.6349 51.2518 61.6349 50.5868 61.6349 50.2672C61.6349 49.2452 60.3353 48.5312 57.7733 48.1485C56.8189 48.0038 56.1586 47.1148 56.3009 46.1558C56.4433 45.1992 57.3299 44.5622 58.2936 44.6858ZM23.1671 46.1558C23.3095 47.1148 22.6491 48.0038 21.6948 48.1485C19.1328 48.5312 17.8331 49.2452 17.8331 50.2672C17.8331 50.5868 17.8331 51.2495 19.4175 51.8538C20.3205 52.1968 20.7755 53.2095 20.4301 54.1125C20.1641 54.8102 19.4991 55.2395 18.7945 55.2395C18.5868 55.2395 18.3768 55.2022 18.1715 55.1252C14.8325 53.8512 14.3331 51.5342 14.3331 50.2672C14.3331 48.1905 15.5208 45.5328 21.1768 44.6858C22.1405 44.5645 23.0225 45.1992 23.1671 46.1558ZM39.7352 21.3334C45.6152 21.3334 50.3962 26.1167 50.3962 31.9944C50.3962 37.872 45.6152 42.6554 39.7352 42.6554H39.6722C36.8255 42.646 34.1585 41.5307 32.1612 39.5147C30.1592 37.501 29.0649 34.827 29.0764 31.9874C29.0764 26.1167 33.8575 21.3334 39.7352 21.3334ZM39.7352 24.8334C35.7872 24.8334 32.5765 28.0464 32.5765 31.9944C32.5695 33.9077 33.3022 35.6974 34.6439 37.0484C35.9855 38.3994 37.7729 39.1484 39.6769 39.1554L39.7352 40.9054V39.1554C43.6832 39.1554 46.8962 35.9447 46.8962 31.9944C46.8962 28.0464 43.6832 24.8334 39.7352 24.8334ZM54.1762 23.6189C58.2782 24.2932 61.2579 27.8025 61.2579 31.9629C61.2485 36.1512 58.1195 39.7445 53.9779 40.3255C53.8962 40.3372 53.8145 40.3419 53.7352 40.3419C52.8765 40.3419 52.1275 39.7095 52.0039 38.8345C51.8709 37.8755 52.5359 36.9912 53.4949 36.8582C55.9215 36.5175 57.7532 34.4129 57.7579 31.9582C57.7579 29.5245 56.0125 27.4665 53.6069 27.0722C52.6549 26.9159 52.0085 26.0152 52.1649 25.0609C52.3235 24.1065 53.2172 23.4672 54.1762 23.6189ZM27.3055 25.0609C27.4619 26.0152 26.8155 26.9159 25.8635 27.0722C23.4579 27.4665 21.7125 29.5245 21.7125 31.9629C21.7172 34.4129 23.5489 36.5199 25.9732 36.8582C26.9322 36.9912 27.5972 37.8755 27.4642 38.8345C27.3405 39.7095 26.5915 40.3419 25.7329 40.3419C25.6535 40.3419 25.5719 40.3372 25.4902 40.3255C21.3485 39.7445 18.2219 36.1512 18.2125 31.9675C18.2125 27.8025 21.1922 24.2932 25.2942 23.6189C26.2765 23.4649 27.1469 24.1112 27.3055 25.0609Z" fill="#00BA8B"/>
</svg>
