<svg width="80" height="80" viewBox="0 0 80 80" fill="none" xmlns="http://www.w3.org/2000/svg">
<rect width="80" height="80" rx="26" fill="#AE8FF7" fill-opacity="0.1"/>
<path d="M40 22.5867C42.6783 22.5744 45.3328 23.09 47.8118 24.104C50.2908 25.118 52.5457 26.6106 54.4476 28.4964C56.3495 30.3823 57.8612 32.6244 58.8963 35.0947C59.9313 37.5649 60.4695 40.215 60.48 42.8933C60.4863 47.5509 58.8744 52.0661 55.92 55.6667L54.44 57.4133L51.7733 55.16L52.8133 54L52.92 53.8933C55.3416 51.1092 56.7759 47.6031 57 43.92H52.8V40.5067H56.8933C56.4602 37.4672 55.1959 34.6065 53.24 32.24L50.7466 34.7333L48.3333 32.32L50.8266 29.8267C48.219 27.7118 45.0479 26.4091 41.7066 26.08V31.12H38.2933V26.08C34.9515 26.4068 31.7797 27.7098 29.1733 29.8267L31.6666 32.32L29.2533 34.7333L26.76 32.24C24.804 34.6065 23.5398 37.4672 23.1066 40.5067H27.2V43.92H22.96C23.1486 47.4074 24.4474 50.7432 26.6666 53.44L28.1733 55.16L25.6266 57.4133L24.5066 56.08C21.2501 52.4366 19.4634 47.7132 19.4933 42.8267C19.5321 37.4244 21.7135 32.2584 25.5585 28.4634C29.4035 24.6684 34.5976 22.5547 40 22.5867ZM46.32 36L48.7333 38.4L43.2666 43.8533C43.4559 44.5743 43.4029 45.3375 43.1159 46.0255C42.8289 46.7134 42.3238 47.288 41.6783 47.6608C41.0327 48.0336 40.2826 48.1839 39.5433 48.0885C38.804 47.9932 38.1165 47.6576 37.5866 47.1333C37.2706 46.8187 37.0198 46.4447 36.8486 46.0328C36.6775 45.6209 36.5894 45.1793 36.5894 44.7333C36.5894 44.2873 36.6775 43.8457 36.8486 43.4339C37.0198 43.022 37.2706 42.648 37.5866 42.3333C37.9701 41.9448 38.4425 41.6555 38.9629 41.4906C39.4833 41.3256 40.036 41.29 40.5733 41.3867L40.8666 41.4533L46.32 36Z" fill="#AE8FF7"/>
</svg>
