<svg width="80" height="80" viewBox="0 0 80 80" fill="none" xmlns="http://www.w3.org/2000/svg">
<rect width="80" height="80" rx="26" fill="#EEB300" fill-opacity="0.08"/>
<path d="M37.2808 44.3987L28.3215 43.5404C26.8384 43.3983 26.0968 43.3273 25.8533 42.8159C25.6097 42.3044 26.0219 41.6839 26.8463 40.4429L41.6366 18.1779C42.2179 17.3028 42.5086 16.8652 42.7632 16.9509C43.0177 17.0366 42.9846 17.5609 42.9182 18.6095L41.9139 34.4842C41.8561 35.3976 41.8272 35.8544 42.0899 36.1624C42.3525 36.4704 42.8081 36.514 43.7192 36.6013L52.6785 37.4596C54.1616 37.6017 54.9032 37.6727 55.1467 38.1841C55.3903 38.6956 54.9781 39.3161 54.1537 40.5571L39.3634 62.8221C38.7821 63.6972 38.4914 64.1348 38.2368 64.0491C37.9822 63.9634 38.0154 63.4391 38.0818 62.3905L39.0861 46.5158C39.1439 45.6024 39.1728 45.1456 38.9101 44.8376C38.6475 44.5296 38.1919 44.486 37.2808 44.3987Z" stroke="#EEB300" stroke-width="3"/>
<path d="M53.5416 23.3333L50.4166 27.5H54.5833L51.4583 31.6666" stroke="#EEB300" stroke-opacity="0.59" stroke-width="3" stroke-linecap="round" stroke-linejoin="round"/>
<path d="M28.5416 48.3333L25.4166 52.5H29.5833L26.4583 56.6666" stroke="#EEB300" stroke-opacity="0.62" stroke-width="3" stroke-linecap="round" stroke-linejoin="round"/>
</svg>
