<svg width="181" height="79" viewBox="0 0 181 79" fill="none" xmlns="http://www.w3.org/2000/svg">
<g filter="url(#filter0_d_26_235)">
<rect x="32.3065" y="0.983398" width="48" height="50.9538" transform="rotate(33.7473 32.3065 0.983398)" fill="url(#paint0_linear_26_235)"/>
</g>
<path d="M11.456 42.276H18.624V46.5H5.984V24.036H11.456V42.276ZM29.362 46.756C27.6127 46.756 26.034 46.3827 24.626 45.636C23.2393 44.8893 22.1407 43.8227 21.33 42.436C20.5407 41.0493 20.146 39.428 20.146 37.572C20.146 35.7373 20.5513 34.1267 21.362 32.74C22.1727 31.332 23.282 30.2547 24.69 29.508C26.098 28.7613 27.6767 28.388 29.426 28.388C31.1753 28.388 32.754 28.7613 34.162 29.508C35.57 30.2547 36.6793 31.332 37.49 32.74C38.3007 34.1267 38.706 35.7373 38.706 37.572C38.706 39.4067 38.29 41.028 37.458 42.436C36.6473 43.8227 35.5273 44.8893 34.098 45.636C32.69 46.3827 31.1113 46.756 29.362 46.756ZM29.362 42.02C30.4073 42.02 31.2927 41.636 32.018 40.868C32.7647 40.1 33.138 39.0013 33.138 37.572C33.138 36.1427 32.7753 35.044 32.05 34.276C31.346 33.508 30.4713 33.124 29.426 33.124C28.3593 33.124 27.474 33.508 26.77 34.276C26.066 35.0227 25.714 36.1213 25.714 37.572C25.714 39.0013 26.0553 40.1 26.738 40.868C27.442 41.636 28.3167 42.02 29.362 42.02ZM48.393 28.388C49.6517 28.388 50.7503 28.644 51.689 29.156C52.649 29.668 53.385 30.34 53.897 31.172V28.644H59.369V46.468C59.369 48.1107 59.0383 49.5933 58.377 50.916C57.737 52.26 56.745 53.3267 55.401 54.116C54.0783 54.9053 52.425 55.3 50.441 55.3C47.7957 55.3 45.6517 54.6707 44.009 53.412C42.3663 52.1747 41.4277 50.4893 41.193 48.356H46.601C46.7717 49.0387 47.177 49.572 47.817 49.956C48.457 50.3613 49.2463 50.564 50.185 50.564C51.3157 50.564 52.2117 50.2333 52.873 49.572C53.5557 48.932 53.897 47.8973 53.897 46.468V43.94C53.3637 44.772 52.6277 45.4547 51.689 45.988C50.7503 46.5 49.6517 46.756 48.393 46.756C46.921 46.756 45.5877 46.3827 44.393 45.636C43.1983 44.868 42.249 43.7907 41.545 42.404C40.8623 40.996 40.521 39.3747 40.521 37.54C40.521 35.7053 40.8623 34.0947 41.545 32.708C42.249 31.3213 43.1983 30.2547 44.393 29.508C45.5877 28.7613 46.921 28.388 48.393 28.388ZM53.897 37.572C53.897 36.2067 53.513 35.1293 52.745 34.34C51.9983 33.5507 51.081 33.156 49.993 33.156C48.905 33.156 47.977 33.5507 47.209 34.34C46.4623 35.108 46.089 36.1747 46.089 37.54C46.089 38.9053 46.4623 39.9933 47.209 40.804C47.977 41.5933 48.905 41.988 49.993 41.988C51.081 41.988 51.9983 41.5933 52.745 40.804C53.513 40.0147 53.897 38.9373 53.897 37.572ZM71.4558 46.756C69.7064 46.756 68.1278 46.3827 66.7198 45.636C65.3331 44.8893 64.2344 43.8227 63.4238 42.436C62.6344 41.0493 62.2398 39.428 62.2398 37.572C62.2398 35.7373 62.6451 34.1267 63.4557 32.74C64.2664 31.332 65.3758 30.2547 66.7838 29.508C68.1918 28.7613 69.7704 28.388 71.5198 28.388C73.2691 28.388 74.8478 28.7613 76.2558 29.508C77.6638 30.2547 78.7731 31.332 79.5838 32.74C80.3944 34.1267 80.7998 35.7373 80.7998 37.572C80.7998 39.4067 80.3838 41.028 79.5518 42.436C78.7411 43.8227 77.6211 44.8893 76.1918 45.636C74.7838 46.3827 73.2051 46.756 71.4558 46.756ZM71.4558 42.02C72.5011 42.02 73.3864 41.636 74.1118 40.868C74.8584 40.1 75.2318 39.0013 75.2318 37.572C75.2318 36.1427 74.8691 35.044 74.1438 34.276C73.4398 33.508 72.5651 33.124 71.5198 33.124C70.4531 33.124 69.5678 33.508 68.8638 34.276C68.1598 35.0227 67.8078 36.1213 67.8078 37.572C67.8078 39.0013 68.1491 40.1 68.8318 40.868C69.5358 41.636 70.4104 42.02 71.4558 42.02ZM90.9668 46.756C89.4094 46.756 88.0228 46.4893 86.8068 45.956C85.5908 45.4227 84.6308 44.6973 83.9268 43.78C83.2228 42.8413 82.8281 41.796 82.7428 40.644H88.1508C88.2148 41.2627 88.5028 41.764 89.0148 42.148C89.5268 42.532 90.1561 42.724 90.9028 42.724C91.5854 42.724 92.1081 42.596 92.4708 42.34C92.8548 42.0627 93.0468 41.7107 93.0468 41.284C93.0468 40.772 92.7801 40.3987 92.2468 40.164C91.7134 39.908 90.8494 39.6307 89.6548 39.332C88.3748 39.0333 87.3081 38.724 86.4548 38.404C85.6014 38.0627 84.8654 37.54 84.2468 36.836C83.6281 36.1107 83.3188 35.14 83.3188 33.924C83.3188 32.9 83.5961 31.972 84.1508 31.14C84.7268 30.2867 85.5588 29.6147 86.6468 29.124C87.7561 28.6333 89.0681 28.388 90.5828 28.388C92.8228 28.388 94.5828 28.9427 95.8628 30.052C97.1641 31.1613 97.9108 32.6333 98.1028 34.468H93.0468C92.9614 33.8493 92.6841 33.3587 92.2148 32.996C91.7668 32.6333 91.1694 32.452 90.4228 32.452C89.7828 32.452 89.2921 32.58 88.9508 32.836C88.6094 33.0707 88.4388 33.4013 88.4388 33.828C88.4388 34.34 88.7054 34.724 89.2388 34.98C89.7934 35.236 90.6468 35.492 91.7988 35.748C93.1214 36.0893 94.1988 36.4307 95.0308 36.772C95.8628 37.092 96.5881 37.6253 97.2068 38.372C97.8468 39.0973 98.1774 40.0787 98.1988 41.316C98.1988 42.3613 97.9001 43.3 97.3028 44.132C96.7268 44.9427 95.8841 45.5827 94.7748 46.052C93.6868 46.5213 92.4174 46.756 90.9668 46.756ZM112.523 28.452C114.571 28.452 116.213 29.1347 117.451 30.5C118.688 31.844 119.307 33.7 119.307 36.068V46.5H113.867V36.804C113.867 35.6093 113.557 34.6813 112.939 34.02C112.32 33.3587 111.488 33.028 110.443 33.028C109.397 33.028 108.565 33.3587 107.947 34.02C107.328 34.6813 107.019 35.6093 107.019 36.804V46.5H101.547V22.82H107.019V31.044C107.573 30.2547 108.331 29.6253 109.291 29.156C110.251 28.6867 111.328 28.452 112.523 28.452ZM139.941 37.284C139.941 37.796 139.909 38.3293 139.845 38.884H127.461C127.546 39.9933 127.898 40.8467 128.517 41.444C129.157 42.02 129.936 42.308 130.853 42.308C132.218 42.308 133.168 41.732 133.701 40.58H139.525C139.226 41.7533 138.682 42.8093 137.893 43.748C137.125 44.6867 136.154 45.4227 134.981 45.956C133.808 46.4893 132.496 46.756 131.045 46.756C129.296 46.756 127.738 46.3827 126.373 45.636C125.008 44.8893 123.941 43.8227 123.173 42.436C122.405 41.0493 122.021 39.428 122.021 37.572C122.021 35.716 122.394 34.0947 123.141 32.708C123.909 31.3213 124.976 30.2547 126.341 29.508C127.706 28.7613 129.274 28.388 131.045 28.388C132.773 28.388 134.309 28.7507 135.653 29.476C136.997 30.2013 138.042 31.236 138.789 32.58C139.557 33.924 139.941 35.492 139.941 37.284ZM134.341 35.844C134.341 34.9053 134.021 34.1587 133.381 33.604C132.741 33.0493 131.941 32.772 130.981 32.772C130.064 32.772 129.285 33.0387 128.645 33.572C128.026 34.1053 127.642 34.8627 127.493 35.844H134.341ZM150.092 46.756C148.534 46.756 147.148 46.4893 145.932 45.956C144.716 45.4227 143.756 44.6973 143.052 43.78C142.348 42.8413 141.953 41.796 141.868 40.644H147.276C147.34 41.2627 147.628 41.764 148.14 42.148C148.652 42.532 149.281 42.724 150.028 42.724C150.71 42.724 151.233 42.596 151.596 42.34C151.98 42.0627 152.172 41.7107 152.172 41.284C152.172 40.772 151.905 40.3987 151.372 40.164C150.838 39.908 149.974 39.6307 148.78 39.332C147.5 39.0333 146.433 38.724 145.58 38.404C144.726 38.0627 143.99 37.54 143.372 36.836C142.753 36.1107 142.444 35.14 142.444 33.924C142.444 32.9 142.721 31.972 143.276 31.14C143.852 30.2867 144.684 29.6147 145.772 29.124C146.881 28.6333 148.193 28.388 149.708 28.388C151.948 28.388 153.708 28.9427 154.988 30.052C156.289 31.1613 157.036 32.6333 157.228 34.468H152.172C152.086 33.8493 151.809 33.3587 151.34 32.996C150.892 32.6333 150.294 32.452 149.548 32.452C148.908 32.452 148.417 32.58 148.076 32.836C147.734 33.0707 147.564 33.4013 147.564 33.828C147.564 34.34 147.83 34.724 148.364 34.98C148.918 35.236 149.772 35.492 150.924 35.748C152.246 36.0893 153.324 36.4307 154.156 36.772C154.988 37.092 155.713 37.6253 156.332 38.372C156.972 39.0973 157.302 40.0787 157.324 41.316C157.324 42.3613 157.025 43.3 156.428 44.132C155.852 44.9427 155.009 45.5827 153.9 46.052C152.812 46.5213 151.542 46.756 150.092 46.756ZM171.648 28.452C173.696 28.452 175.338 29.1347 176.576 30.5C177.813 31.844 178.432 33.7 178.432 36.068V46.5H172.992V36.804C172.992 35.6093 172.682 34.6813 172.064 34.02C171.445 33.3587 170.613 33.028 169.568 33.028C168.522 33.028 167.69 33.3587 167.072 34.02C166.453 34.6813 166.144 35.6093 166.144 36.804V46.5H160.672V22.82H166.144V31.044C166.698 30.2547 167.456 29.6253 168.416 29.156C169.376 28.6867 170.453 28.452 171.648 28.452Z" fill="#0252C5"/>
<defs>
<filter id="filter0_d_26_235" x="0" y="0.983398" width="76.2183" height="77.0334" filterUnits="userSpaceOnUse" color-interpolation-filters="sRGB">
<feFlood flood-opacity="0" result="BackgroundImageFix"/>
<feColorMatrix in="SourceAlpha" type="matrix" values="0 0 0 0 0 0 0 0 0 0 0 0 0 0 0 0 0 0 127 0" result="hardAlpha"/>
<feOffset dy="4"/>
<feGaussianBlur stdDeviation="2"/>
<feComposite in2="hardAlpha" operator="out"/>
<feColorMatrix type="matrix" values="0 0 0 0 0 0 0 0 0 0 0 0 0 0 0 0 0 0 0.15 0"/>
<feBlend mode="normal" in2="BackgroundImageFix" result="effect1_dropShadow_26_235"/>
<feBlend mode="normal" in="SourceGraphic" in2="effect1_dropShadow_26_235" result="shape"/>
</filter>
<linearGradient id="paint0_linear_26_235" x1="56.3065" y1="0.983398" x2="56.3065" y2="51.9372" gradientUnits="userSpaceOnUse">
<stop stop-color="#A4B8FF"/>
<stop offset="0.979744" stop-color="#BADDFF"/>
</linearGradient>
</defs>
</svg>
